<?xml version="1.0" encoding="UTF-8"?>
<!DOCTYPE svg PUBLIC "-//W3C//DTD SVG 1.1//EN" "http://www.w3.org/Graphics/SVG/1.1/DTD/svg11.dtd">
<!-- Creator: CorelDRAW X8 -->
<svg xmlns="http://www.w3.org/2000/svg" xml:space="preserve" width="364px" height="115px" version="1.1" style="shape-rendering:geometricPrecision; text-rendering:geometricPrecision; image-rendering:optimizeQuality; fill-rule:evenodd; clip-rule:evenodd"
viewBox="0 0 364 115"
 xmlns:xlink="http://www.w3.org/1999/xlink">
 <defs>
  <style type="text/css">
   <![CDATA[
    .fil0 {fill:#FEFEFE;fill-rule:nonzero}
    .fil2 {fill:#1277AF;fill-rule:nonzero}
    .fil1 {fill:url(#id0);fill-rule:nonzero}
   ]]>
  </style>
  <linearGradient id="id0" gradientUnits="userSpaceOnUse" x1="14.8725" y1="50.2572" x2="67.9017" y2="50.2572">
   <stop offset="0" style="stop-opacity:1; stop-color:#F08400"/>
   <stop offset="1" style="stop-opacity:1; stop-color:#EAD40D"/>
  </linearGradient>
 </defs>
 <g id="Layer_x0020_1">
  <metadata id="CorelCorpID_0Corel-Layer"/>
  <g id="_1850780231728">
   <path class="fil0" d="M114 87l0 -6 9 0c3,0 5,0 7,-2 2,-2 3,-4 3,-7l0 -12c0,-3 -1,-5 -3,-7 -2,-1 -4,-2 -7,-2l-9 0 0 -6 9 0c5,0 9,2 12,4 2,3 4,7 4,11l0 12c0,5 -2,8 -5,11 -2,3 -6,4 -11,4l-9 0zm-4 0l0 -42 6 0 0 42 -6 0z"/>
   <path id="1" class="fil0" d="M147 51l0 -6 6 0 0 6 -6 0zm0 36l0 -30 6 0 0 30 -6 0z"/>
   <path id="2" class="fil0" d="M172 99c-2,0 -4,0 -6,-1 -2,-1 -3,-2 -4,-4l4 -3c1,2 3,3 6,3 2,0 4,-1 5,-2 1,-1 2,-3 2,-5l0 -30 6 0 0 29c0,4 -1,7 -4,10 -2,2 -5,3 -9,3zm-1 -12c-3,0 -5,-1 -7,-3 -2,-2 -3,-5 -3,-9l0 -6c0,-4 1,-7 3,-9 2,-2 4,-3 7,-3 2,0 4,0 5,1 1,1 3,2 4,4l-1 6c0,-1 0,-2 -1,-3 0,-1 -1,-2 -2,-2 -1,-1 -2,-1 -3,-1 -2,0 -3,1 -4,2 -1,1 -2,3 -2,5l0 6c0,2 1,4 2,5 1,1 2,2 4,2 1,0 2,0 3,-1 1,0 2,-1 2,-2 1,-1 1,-2 1,-3l0 6c0,1 -1,3 -2,4 -2,1 -3,1 -6,1z"/>
   <path id="3" class="fil0" d="M194 51l0 -6 5 0 0 6 -5 0zm0 36l0 -30 5 0 0 30 -5 0z"/>
   <path id="4" class="fil0" d="M222 87c-3,0 -5,0 -7,-2 -2,-1 -4,-3 -5,-5 -1,-2 -2,-5 -2,-8l0 -11c0,-4 1,-6 2,-9 1,-2 3,-4 5,-5 2,-1 4,-2 7,-2 3,0 5,1 7,2 2,1 4,2 5,4 1,2 2,4 3,6l0 0 -6 0 0 0c-1,-1 -1,-2 -2,-3 -1,-1 -2,-2 -3,-2 -1,-1 -2,-1 -4,-1 -2,0 -4,1 -6,2 -1,2 -2,5 -2,8l0 11c0,3 1,5 2,7 2,2 4,3 6,3 2,0 4,-1 5,-2 2,-1 3,-2 4,-4l0 0 6 0 0 0c-1,2 -2,4 -3,6 -1,1 -3,3 -5,4 -2,1 -4,1 -7,1z"/>
   <path id="5" class="fil0" d="M256 87c-4,0 -7,-1 -9,-3 -3,-2 -4,-5 -4,-10l0 -4c0,-4 1,-8 4,-10 2,-2 5,-3 9,-3 3,0 6,1 9,3 2,2 3,6 3,10l0 5c0,4 -1,7 -3,9 -3,2 -6,3 -9,3zm0 -5c2,0 3,-1 4,-2 1,-1 2,-3 2,-5l0 -5c0,-3 -1,-4 -2,-6 -1,-1 -2,-2 -4,-2 -2,0 -4,1 -5,2 -1,2 -2,3 -2,6l0 5c0,2 1,4 2,5 1,1 3,2 5,2z"/>
   <path id="6" class="fil0" d="M277 87l0 -34c0,-2 0,-4 2,-6 1,-1 2,-2 5,-2l5 0 0 6 -5 0c0,0 -1,0 -1,1 0,0 0,1 0,1l0 34 -6 0zm-3 -25l0 -5 15 0 0 5 -15 0z"/>
   <path id="7" class="fil0" d="M295 87l0 -34c0,-2 1,-4 2,-6 1,-1 3,-2 5,-2l5 0 0 6 -4 0c-1,0 -1,0 -1,1 -1,0 -1,1 -1,1l0 34 -6 0zm-3 -25l0 -5 15 0 0 5 -15 0z"/>
   <path id="8" class="fil0" d="M325 87c-5,0 -8,-1 -10,-3 -2,-2 -3,-6 -3,-10l0 -3c0,-5 1,-8 3,-10 2,-3 5,-4 9,-4 4,0 7,1 9,4 2,3 3,7 3,11l0 2 -20 0 0 -4 14 0 0 0c0,-3 -1,-4 -2,-6 -1,-1 -2,-2 -4,-2 -2,0 -4,1 -5,2 -1,2 -2,4 -2,6l0 4c0,3 1,4 2,6 1,1 3,2 6,2 2,0 4,-1 6,-3l0 0 4 4 0 0c-1,1 -3,2 -5,3 -2,1 -4,1 -5,1z"/>
   <path id="9" class="fil0" d="M344 87l0 -30 6 0 0 30 -6 0zm16 -23c-1,-1 -3,-2 -5,-2 -1,0 -3,1 -4,2 -1,1 -1,2 -1,4l-1 -5c1,-2 2,-4 3,-5 2,-1 4,-1 5,-1 3,0 5,1 7,2l-4 5z"/>
   <g>
    <path class="fil1" d="M30 52l0 36c-1,-1 -3,-1 -4,-3 -1,-2 -2,-5 -2,-7 0,-1 0,-2 0,-9l0 -17 6 0zm38 -9c0,-10 0,-9 0,-12 0,-4 0,-8 -1,-12 -3,-11 -13,-19 -26,-19 -12,0 -22,8 -25,19 -1,2 -1,6 -1,11l0 39c0,8 0,8 0,10 1,2 1,7 5,11 4,6 11,10 18,11l0 -58 -14 0 0 -13c0,-5 0,-8 0,-8 2,-8 9,-13 17,-13 9,0 16,5 18,12 0,3 0,7 0,10 0,3 0,2 0,12"/>
    <path class="fil2" d="M44 42l0 58c8,-1 14,-5 19,-11 4,-4 4,-9 5,-11 0,-2 0,-2 0,-10l0 -11 -9 0 0 11c0,5 0,12 -3,16 -1,1 -2,2 -3,3l0 -36 21 0 0 23c0,18 -15,32 -33,32 -17,0 -32,-14 -32,-32l0 -32 -9 0 0 32c0,23 19,41 41,41 23,0 42,-18 42,-41l0 -32c-14,0 -25,0 -39,0z"/>
   </g>
  </g>
 </g>
</svg>
