<svg width="32" height="25" viewBox="0 0 32 25" fill="none" xmlns="http://www.w3.org/2000/svg">
<g id="+Add1">
<path id="Vector" fill-rule="evenodd" clip-rule="evenodd" d="M0 12.5C0 5.59625 7.08858 0 15.8333 0C24.5781 0 31.6667 5.59625 31.6667 12.5C31.6667 19.4037 24.5781 25 15.8333 25C7.08858 25 0 19.4037 0 12.5ZM15.8333 2.5C12.4739 2.5 9.25211 3.55357 6.87665 5.42893C4.50119 7.3043 3.16667 9.84783 3.16667 12.5C3.16667 15.1522 4.50119 17.6957 6.87665 19.5711C9.25211 21.4464 12.4739 22.5 15.8333 22.5C19.1927 22.5 22.4146 21.4464 24.79 19.5711C27.1655 17.6957 28.5 15.1522 28.5 12.5C28.5 9.84783 27.1655 7.3043 24.79 5.42893C22.4146 3.55357 19.1927 2.5 15.8333 2.5Z" fill="#0B5A9A"/>
<path id="Vector_2" fill-rule="evenodd" clip-rule="evenodd" d="M17.4168 6.25C17.4168 5.91848 17.25 5.60054 16.9531 5.36612C16.6561 5.1317 16.2534 5 15.8335 5C15.4136 5 15.0108 5.1317 14.7139 5.36612C14.417 5.60054 14.2502 5.91848 14.2502 6.25V11.25H7.91683C7.4969 11.25 7.09418 11.3817 6.79724 11.6161C6.50031 11.8505 6.3335 12.1685 6.3335 12.5C6.3335 12.8315 6.50031 13.1495 6.79724 13.3839C7.09418 13.6183 7.4969 13.75 7.91683 13.75H14.2502V18.75C14.2502 19.0815 14.417 19.3995 14.7139 19.6339C15.0108 19.8683 15.4136 20 15.8335 20C16.2534 20 16.6561 19.8683 16.9531 19.6339C17.25 19.3995 17.4168 19.0815 17.4168 18.75V13.75H23.7502C24.1701 13.75 24.5728 13.6183 24.8698 13.3839C25.1667 13.1495 25.3335 12.8315 25.3335 12.5C25.3335 12.1685 25.1667 11.8505 24.8698 11.6161C24.5728 11.3817 24.1701 11.25 23.7502 11.25H17.4168V6.25Z" fill="#0B5A9A"/>
</g>
</svg>
