<svg width="33" height="34" viewBox="0 0 33 34" fill="none" xmlns="http://www.w3.org/2000/svg">
<path d="M5.6951 1.84778L6.44614 1.73779C7.3329 1.60822 8.23599 1.81624 8.97672 2.32068C9.71745 2.82511 10.2418 3.58921 10.4461 4.46179C10.8735 6.2992 11.511 8.08119 12.3461 9.7727C12.5856 10.2523 12.7031 10.7837 12.6881 11.3196C12.6731 11.8555 12.5261 12.3793 12.2601 12.8447L12.0002 13.2987C11.7416 13.7525 11.6222 14.2723 11.6567 14.7935C11.6911 15.3146 11.8781 15.814 12.1941 16.2297C12.8878 17.1482 13.645 18.017 14.4601 18.8297C15.2737 19.6439 16.1424 20.401 17.0602 21.0957C17.4762 21.412 17.9762 21.5989 18.4977 21.6331C19.0193 21.6672 19.5394 21.5471 19.9931 21.2877L20.4471 21.0277C20.9125 20.7625 21.4361 20.6161 21.9716 20.6014C22.5071 20.5868 23.0379 20.7043 23.5171 20.9437C25.2089 21.7783 26.9909 22.4159 28.8282 22.8437C29.7012 23.0474 30.4659 23.5715 30.9708 24.3124C31.4757 25.0532 31.6838 25.9567 31.5541 26.8437L31.4191 27.7638L31.0262 30.4308C30.9848 30.7172 30.8864 30.9924 30.737 31.2402C30.5875 31.4881 30.3899 31.7035 30.1559 31.8738C29.9219 32.0441 29.6562 32.1657 29.3744 32.2317C29.0926 32.2976 28.8004 32.3066 28.5151 32.2578C21.6708 31.0387 15.3653 27.7492 10.4494 22.8334C5.53362 17.9176 2.2442 11.612 1.02512 4.7677C0.976358 4.48242 0.985243 4.19037 1.05118 3.90857C1.11712 3.62676 1.23882 3.36097 1.40909 3.12695C1.57937 2.89293 1.79474 2.69535 2.04258 2.5459C2.29042 2.39644 2.56571 2.2981 2.85215 2.25671L5.6951 1.84778Z" stroke="black" stroke-width="2" stroke-linecap="round" stroke-linejoin="round"/>
</svg>
