<svg xmlns="http://www.w3.org/2000/svg" xmlns:xlink="http://www.w3.org/1999/xlink" width="40" height="40.911" viewBox="0 0 40 40.911">
  <defs>
    <clipPath id="clip-path">
      <rect id="Rectangle_5420" data-name="Rectangle 5420" width="40" height="40.911" fill="none"/>
    </clipPath>
  </defs>
  <g id="Group_2372" data-name="Group 2372" transform="translate(0 0)">
    <path id="Path_1705" data-name="Path 1705" d="M9.3,36.571H4.744v4.551" transform="translate(-0.673 -5.192)" fill="none" stroke="#1a1818" stroke-linecap="round" stroke-linejoin="round" stroke-width="1"/>
    <g id="Group_2371" data-name="Group 2371" transform="translate(0 0)">
      <g id="Group_2370" data-name="Group 2370" clip-path="url(#clip-path)">
        <path id="Path_1706" data-name="Path 1706" d="M23.864,43.483a20.1,20.1,0,0,1-3.645.369A18.222,18.222,0,0,1,7.475,39.3c-.619-.526-2.731-2.732-2.731-2.732" transform="translate(-0.673 -5.192)" fill="none" stroke="#1a1818" stroke-linecap="round" stroke-linejoin="round" stroke-width="1"/>
        <path id="Path_1707" data-name="Path 1707" d="M43.056,13.727a18.666,18.666,0,0,1,1.105,12.565" transform="translate(-6.112 -1.949)" fill="none" stroke="#1a1818" stroke-linecap="round" stroke-width="1"/>
        <path id="Path_1708" data-name="Path 1708" d="M2.218,27.384A18.847,18.847,0,0,1,.5,19.617,19.144,19.144,0,0,1,19.616.5,18.219,18.219,0,0,1,32.36,5.052c.619.526,2.731,2.732,2.731,2.732" transform="translate(-0.071 -0.071)" fill="none" stroke="#1a1818" stroke-linecap="round" stroke-linejoin="round" stroke-width="1"/>
        <path id="Path_1709" data-name="Path 1709" d="M35.509,8.235H40.06V3.684" transform="translate(-5.041 -0.523)" fill="none" stroke="#1a1818" stroke-linecap="round" stroke-linejoin="round" stroke-width="1"/>
        <path id="Path_1710" data-name="Path 1710" d="M39.753,43.546a2.731,2.731,0,1,1,2.731,2.731A2.731,2.731,0,0,1,39.753,43.546Z" transform="translate(-5.643 -5.794)" fill="none" stroke="#1a1818" stroke-linecap="round" stroke-linejoin="round" stroke-width="1"/>
        <path id="Path_1711" data-name="Path 1711" d="M30.2,36.119a2.731,2.731,0,1,1,2.731,2.731A2.731,2.731,0,0,1,30.2,36.119Z" transform="translate(-4.288 -4.74)" fill="none" stroke="#1a1818" stroke-linecap="round" stroke-linejoin="round" stroke-width="1"/>
        <line id="Line_908" data-name="Line 908" y1="11.834" x2="10.013" transform="translate(27.737 28.648)" fill="none" stroke="#1a1818" stroke-linecap="round" stroke-linejoin="round" stroke-width="1"/>
        <ellipse id="Ellipse_578" data-name="Ellipse 578" cx="6.372" cy="2.731" rx="6.372" ry="2.731" transform="translate(8.622 18.635)" fill="none" stroke="#1a1818" stroke-linecap="round" stroke-linejoin="round" stroke-width="1"/>
        <path id="Path_1712" data-name="Path 1712" d="M22.792,24.9v4.551c0,1.508-2.853,2.731-6.372,2.731s-6.372-1.223-6.372-2.731V24.9" transform="translate(-1.426 -3.535)" fill="none" stroke="#1a1818" stroke-linecap="round" stroke-linejoin="round" stroke-width="1"/>
        <path id="Path_1713" data-name="Path 1713" d="M33.544,19.6v4.551c0,1.376-2.373,2.514-5.461,2.7" transform="translate(-3.987 -2.782)" fill="none" stroke="#1a1818" stroke-linecap="round" stroke-linejoin="round" stroke-width="1"/>
        <ellipse id="Ellipse_579" data-name="Ellipse 579" cx="6.372" cy="2.731" rx="6.372" ry="2.731" transform="translate(16.814 9.532)" fill="none" stroke="#1a1818" stroke-linecap="round" stroke-linejoin="round" stroke-width="1"/>
        <line id="Line_909" data-name="Line 909" y1="3.642" transform="translate(16.814 12.263)" fill="none" stroke="#1a1818" stroke-linecap="round" stroke-linejoin="round" stroke-width="1"/>
        <path id="Path_1714" data-name="Path 1714" d="M33.488,14.293v4.551c0,1.426-2.551,2.6-5.8,2.721" transform="translate(-3.93 -2.029)" fill="none" stroke="#1a1818" stroke-linecap="round" stroke-linejoin="round" stroke-width="1"/>
      </g>
    </g>
  </g>
</svg>
