<svg id="Group_2529" data-name="Group 2529" xmlns="http://www.w3.org/2000/svg" xmlns:xlink="http://www.w3.org/1999/xlink" width="42.215" height="40" viewBox="0 0 42.215 40">
  <defs>
    <clipPath id="clip-path">
      <rect id="Rectangle_2863" data-name="Rectangle 2863" width="42.215" height="40" fill="none"/>
    </clipPath>
  </defs>
  <g id="Group_1498" data-name="Group 1498" clip-path="url(#clip-path)">
    <path id="Path_1613" data-name="Path 1613" d="M38.569,53.17H3.62A3.624,3.624,0,0,1,0,49.55V19.286a3.6,3.6,0,0,1,3.6-3.6H7.989v2.959H3.6a.637.637,0,0,0-.637.637V49.55a.662.662,0,0,0,.661.661H38.569a.7.7,0,0,0,.686-.686V19.31a.662.662,0,0,0-.661-.661H33.979V15.69h4.615a3.625,3.625,0,0,1,3.62,3.62V49.525a3.649,3.649,0,0,1-3.645,3.645" transform="translate(0 -13.17)"/>
    <rect id="Rectangle_2852" data-name="Rectangle 2852" width="8.672" height="3.212" transform="translate(16.657 1.606)"/>
    <rect id="Rectangle_2853" data-name="Rectangle 2853" width="3.212" height="8.833" transform="translate(10.394)"/>
    <rect id="Rectangle_2854" data-name="Rectangle 2854" width="39.185" height="3.051" transform="translate(1.08 13.49)"/>
    <rect id="Rectangle_2855" data-name="Rectangle 2855" width="6.263" height="2.409" transform="translate(8.949 7.227)"/>
    <rect id="Rectangle_2856" data-name="Rectangle 2856" width="3.212" height="8.833" transform="translate(27.578)"/>
    <rect id="Rectangle_2857" data-name="Rectangle 2857" width="6.424" height="2.409" transform="translate(26.132 7.227)"/>
    <rect id="Rectangle_2858" data-name="Rectangle 2858" width="5.46" height="3.854" transform="translate(8.146 20.556)"/>
    <rect id="Rectangle_2859" data-name="Rectangle 2859" width="5.46" height="3.854" transform="translate(18.263 20.556)"/>
    <rect id="Rectangle_2860" data-name="Rectangle 2860" width="4.015" height="3.854" transform="translate(29.183 20.556)"/>
    <rect id="Rectangle_2861" data-name="Rectangle 2861" width="5.46" height="2.409" transform="translate(8.146 29.068)"/>
    <rect id="Rectangle_2862" data-name="Rectangle 2862" width="5.46" height="2.409" transform="translate(18.263 29.068)"/>
  </g>
</svg>
