<svg width="29" height="30" viewBox="0 0 29 30" fill="none" xmlns="http://www.w3.org/2000/svg">
<path d="M24.1667 15V7.18625C24.1668 7.08758 24.148 6.98987 24.1115 6.8987C24.0751 6.80754 24.0215 6.72473 23.954 6.655L20.1502 2.72C20.0144 2.57931 19.8301 2.50018 19.6379 2.5H5.55837C5.36609 2.5 5.18169 2.57902 5.04572 2.71967C4.90976 2.86032 4.83337 3.05109 4.83337 3.25V26.75C4.83337 26.9489 4.90976 27.1397 5.04572 27.2803C5.18169 27.421 5.36609 27.5 5.55837 27.5H13.2917M9.66671 12.5H19.3334M9.66671 7.5H14.5M9.66671 17.5H13.2917M21.6945 21.175L22.9028 19.925C23.0286 19.7948 23.178 19.6914 23.3424 19.6209C23.5068 19.5504 23.683 19.5142 23.861 19.5142C24.039 19.5142 24.2152 19.5504 24.3796 19.6209C24.544 19.6914 24.6934 19.7948 24.8192 19.925C25.0731 20.1878 25.2157 20.5441 25.2157 20.9156C25.2157 21.2872 25.0731 21.6435 24.8192 21.9062L23.6109 23.1562L21.6945 21.1737L18.0803 24.9125C17.8996 25.1 17.7812 25.3421 17.742 25.6037L17.4472 27.55L19.3285 27.2463C19.5815 27.2057 19.8155 27.0832 19.9967 26.8963L23.6097 23.1562" stroke="#3C3C3C" stroke-opacity="0.94" stroke-width="1.4" stroke-linecap="round" stroke-linejoin="round"/>
<path d="M19.3334 2.5V6.75C19.3334 6.94891 19.4098 7.13968 19.5457 7.28033C19.6817 7.42098 19.8661 7.5 20.0584 7.5H24.1667" stroke="#3C3C3C" stroke-opacity="0.94" stroke-width="1.4" stroke-linecap="round" stroke-linejoin="round"/>
</svg>
