<svg width="26" height="26" viewBox="0 0 26 26" fill="none" xmlns="http://www.w3.org/2000/svg">
<path opacity="0.5" d="M1 10.6C1 6.0748 1 3.8116 2.56267 2.4064C4.124 1 6.63867 1 11.6667 1H14.3333C19.3613 1 21.876 1 23.4373 2.4064C25 3.8116 25 6.0748 25 10.6V15.4C25 19.9252 25 22.1884 23.4373 23.5936C21.876 25 19.3613 25 14.3333 25H11.6667C6.63867 25 4.124 25 2.56267 23.5936C1 22.1884 1 19.9252 1 15.4V10.6Z" stroke="#111111" stroke-width="1.5"/>
<path d="M7.6665 10.5996H18.3332M7.6665 15.3996H14.3332" stroke="#111111" stroke-width="1.5" stroke-linecap="round"/>
</svg>
