<svg id="Group_393" data-name="Group 393" xmlns="http://www.w3.org/2000/svg" xmlns:xlink="http://www.w3.org/1999/xlink" width="31.004" height="38.91" viewBox="0 0 31.004 38.91">
  <defs>
    <clipPath id="clip-path">
      <rect id="Rectangle_905" data-name="Rectangle 905" width="31.004" height="38.91" fill="none" stroke="#000" stroke-width="1.5"/>
    </clipPath>
  </defs>
  <g id="Group_392" data-name="Group 392" clip-path="url(#clip-path)">
    <path id="Path_839" data-name="Path 839" d="M17.482,6.663h7.534l3.349,3.349v25.95H5.762V17.546" transform="translate(1.969 2.277)" fill="none" stroke="#000" stroke-linecap="round" stroke-linejoin="round" stroke-width="1.5"/>
    <path id="Path_840" data-name="Path 840" d="M4.862,9.692c-.918,1.935-.982,3.953.11,5.006,1.645,1.585,5.159.687,7.849-2s3.538-6.156,1.894-7.74C13.647,3.925,11.7,4.03,9.8,4.906" transform="translate(1.423 1.44)" fill="none" stroke="#000" stroke-linejoin="round" stroke-width="1.5"/>
    <path id="Path_841" data-name="Path 841" d="M6.6,2.974,9.757,6.126a1.533,1.533,0,0,1,.382,1.092" transform="translate(2.257 1.016)" fill="none" stroke="#000" stroke-linecap="round" stroke-linejoin="round" stroke-width="1.5"/>
    <path id="Path_842" data-name="Path 842" d="M10,8.886c-1.25,1.25-3.063,1.711-3.9.877L3.02,6.586" transform="translate(1.032 2.251)" fill="none" stroke="#000" stroke-linecap="round" stroke-linejoin="round" stroke-width="1.5"/>
    <ellipse id="Ellipse_213" data-name="Ellipse 213" cx="5.359" cy="2.756" rx="5.359" ry="2.756" transform="translate(-0.805 6.774) rotate(-45)" fill="none" stroke="#000" stroke-linejoin="round" stroke-width="1.5"/>
    <line id="Line_219" data-name="Line 219" x2="2.277" y2="2.347" transform="translate(14.244 14.135)" fill="none" stroke="#000" stroke-linecap="round" stroke-linejoin="round" stroke-width="1.5"/>
    <line id="Line_220" data-name="Line 220" x2="10.045" transform="translate(14.429 20.66)" fill="none" stroke="#000" stroke-linecap="round" stroke-linejoin="round" stroke-width="1.5"/>
    <line id="Line_221" data-name="Line 221" x2="10.045" transform="translate(14.429 24.008)" fill="none" stroke="#000" stroke-linecap="round" stroke-linejoin="round" stroke-width="1.5"/>
    <line id="Line_222" data-name="Line 222" x2="6.696" transform="translate(14.429 27.356)" fill="none" stroke="#000" stroke-linecap="round" stroke-linejoin="round" stroke-width="1.5"/>
    <path id="Path_843" data-name="Path 843" d="M18.865,8.535v2.512h2.512" transform="translate(6.446 2.916)" fill="none" stroke="#000" stroke-linecap="round" stroke-linejoin="round" stroke-width="1.5"/>
  </g>
</svg>
