<svg width="12" height="12" viewBox="0 0 12 12" fill="none" xmlns="http://www.w3.org/2000/svg">
<path d="M6 3.5V7M6 7L7.5 5.5M6 7L4.5 5.5" stroke="#212529" stroke-width="0.9" stroke-linecap="round" stroke-linejoin="round"/>
<path d="M8 8.5H4" stroke="#212529" stroke-width="0.9" stroke-linecap="round"/>
<path d="M1 6C1 3.643 1 2.4645 1.732 1.732C2.465 1 3.643 1 6 1C8.357 1 9.5355 1 10.2675 1.732C11 2.465 11 3.643 11 6C11 8.357 11 9.5355 10.2675 10.2675C9.536 11 8.357 11 6 11C3.643 11 2.4645 11 1.732 10.2675C1 9.536 1 8.357 1 6Z" stroke="#212529" stroke-width="0.9"/>
</svg>
