<svg id="Group_2586" data-name="Group 2586" xmlns="http://www.w3.org/2000/svg" xmlns:xlink="http://www.w3.org/1999/xlink" width="19.302" height="21.75" viewBox="0 0 19.302 21.75">
  <defs>
    <clipPath id="clip-path">
      <rect id="Rectangle_2233" data-name="Rectangle 2233" width="19.302" height="21.75" fill="none"/>
    </clipPath>
  </defs>
  <g id="Group_1093" data-name="Group 1093" clip-path="url(#clip-path)">
    <path id="Path_1530" data-name="Path 1530" d="M5.243,18.311H0V13.285L12.879.562A2.094,2.094,0,0,1,14.284,0,1.929,1.929,0,0,1,15.66.542l2.306,2.291a1.939,1.939,0,0,1-.012,2.706ZM1.988,16.323H4.61L16.884,4.229c.146-.146.156-.279.022-.413L14.62,1.573a.288.288,0,0,0-.235-.07c-.1,0-.123.054-.2.126L1.988,13.917Z" transform="translate(0 0)"/>
    <rect id="Rectangle_2232" data-name="Rectangle 2232" width="18.823" height="1.526" transform="translate(0.479 20.224)"/>
  </g>
</svg>
