<svg xmlns="http://www.w3.org/2000/svg" width="14.246" height="13.209" viewBox="0 0 14.246 13.209">
  <g id="Group_3640" data-name="Group 3640" transform="translate(-2671.855 -718.925)">
    <path id="Path_2026" data-name="Path 2026" d="M2742.281,731.06l-1.644.774a.477.477,0,0,1-.679-.416l-.06-1.816a1.534,1.534,0,0,1,.225-.852l5.373-8.782a1.649,1.649,0,0,1,2.268-.546h0a1.65,1.65,0,0,1,.546,2.268l-5.374,8.782A1.535,1.535,0,0,1,2742.281,731.06Z" transform="translate(-62.798)" fill="none" stroke="#000" stroke-linecap="round" stroke-linejoin="round" stroke-width="0.5"/>
    <line id="Line_1151" data-name="Line 1151" x2="2.814" y2="1.722" transform="translate(2677.396 728.634)" fill="none" stroke="#000" stroke-linecap="round" stroke-linejoin="round" stroke-width="0.5"/>
    <line id="Line_1152" data-name="Line 1152" x2="2.814" y2="1.722" transform="translate(2682.555 720.202)" fill="none" stroke="#000" stroke-linecap="round" stroke-linejoin="round" stroke-width="0.5"/>
    <line id="Line_1153" data-name="Line 1153" x1="5.159" y2="8.432" transform="translate(2678.803 721.063)" fill="none" stroke="#000" stroke-linecap="round" stroke-linejoin="round" stroke-width="0.5"/>
    <line id="Line_1154" data-name="Line 1154" x1="10.019" transform="translate(2672.105 731.879)" fill="none" stroke="#000" stroke-linecap="round" stroke-linejoin="round" stroke-width="0.5"/>
  </g>
</svg>
