<svg xmlns="http://www.w3.org/2000/svg" xmlns:xlink="http://www.w3.org/1999/xlink" width="30.768" height="37" viewBox="0 0 30.768 37">
  <defs>
    <clipPath id="clip-path">
      <rect id="Rectangle_919" data-name="Rectangle 919" width="30.768" height="37" fill="none" stroke="#707070" stroke-width="0.2"/>
    </clipPath>
  </defs>
  <g id="Group_499" data-name="Group 499" transform="translate(0 0)">
    <rect id="Rectangle_911" data-name="Rectangle 911" width="0.779" height="16.358" transform="translate(28.237 13.047)" stroke="#707070" stroke-width="0.2"/>
    <rect id="Rectangle_912" data-name="Rectangle 912" width="0.779" height="16.358" transform="translate(28.237 13.048)" fill="none" stroke="#000" stroke-width="0.2"/>
    <g id="Group_447" data-name="Group 447" transform="translate(0 0)">
      <g id="Group_446" data-name="Group 446" clip-path="url(#clip-path)">
        <path id="Path_859" data-name="Path 859" d="M31.282,12.766H30.5V9.65c0-3.651-4.368-6.621-9.737-6.621S11.029,6,11.029,9.65v2.337H10.25V9.65c0-4.08,4.717-7.4,10.516-7.4s10.516,3.32,10.516,7.4Z" transform="translate(-2.266 -0.498)" stroke="#707070" stroke-width="0.2"/>
        <path id="Path_860" data-name="Path 860" d="M31.282,12.766H30.5V9.65c0-3.651-4.368-6.621-9.737-6.621S11.029,6,11.029,9.65v2.337H10.25V9.65c0-4.08,4.717-7.4,10.516-7.4s10.516,3.32,10.516,7.4Z" transform="translate(-2.266 -0.498)" fill="none" stroke="#000" stroke-width="0.2"/>
        <rect id="Rectangle_913" data-name="Rectangle 913" width="0.779" height="16.358" transform="translate(7.984 13.047)" stroke="#707070" stroke-width="0.2"/>
        <rect id="Rectangle_914" data-name="Rectangle 914" width="0.779" height="16.358" transform="translate(7.984 13.047)" fill="none" stroke="#000" stroke-width="0.2"/>
        <rect id="Rectangle_915" data-name="Rectangle 915" width="0.779" height="16.358" transform="translate(1.753 11.489)" stroke="#707070" stroke-width="0.2"/>
        <rect id="Rectangle_916" data-name="Rectangle 916" width="0.779" height="16.358" transform="translate(1.753 11.489)" fill="none" stroke="#000" stroke-width="0.2"/>
        <path id="Path_861" data-name="Path 861" d="M30.629,44.585l-23.1-.02L.25,42.14V37.024L2.078,35.2l6.4,1.6H28.843l1.786,1.786ZM7.713,43.806H29.85V38.9l-1.33-1.33L8.335,37.563l-6.018-1.5L1.029,37.347v4.232Z" transform="translate(-0.055 -7.78)" stroke="#707070" stroke-width="0.2"/>
        <path id="Path_862" data-name="Path 862" d="M30.629,44.585l-23.1-.02L.25,42.14V37.024L2.078,35.2l6.4,1.6H28.843l1.786,1.786ZM7.713,43.806H29.85V38.9l-1.33-1.33L8.335,37.563l-6.018-1.5L1.029,37.347v4.232Z" transform="translate(-0.055 -7.78)" fill="none" stroke="#000" stroke-width="0.2"/>
        <path id="Path_863" data-name="Path 863" d="M28.345,11.934,8.777,11.923,2.25,10.291V7.65c0-4.08,4.717-7.4,10.516-7.4,2.968,0,6.319.713,10.866,2.311l-.259.735c-4.46-1.568-7.732-2.267-10.608-2.267C7.4,1.029,3.029,4,3.029,7.65V9.682l5.89,1.473H28.345Z" transform="translate(-0.497 -0.055)" stroke="#707070" stroke-width="0.2"/>
        <path id="Path_864" data-name="Path 864" d="M28.345,11.934,8.777,11.923,2.25,10.291V7.65c0-4.08,4.717-7.4,10.516-7.4,2.968,0,6.319.713,10.866,2.311l-.259.735c-4.46-1.568-7.732-2.267-10.608-2.267C7.4,1.029,3.029,4,3.029,7.65V9.682l5.89,1.473H28.345Z" transform="translate(-0.497 -0.055)" fill="none" stroke="#000" stroke-width="0.2"/>
        <rect id="Rectangle_917" data-name="Rectangle 917" width="9.347" height="0.779" transform="translate(14.605 18.889)" stroke="#707070" stroke-width="0.2"/>
        <rect id="Rectangle_918" data-name="Rectangle 918" width="9.347" height="0.779" transform="translate(14.605 18.889)" fill="none" stroke="#000" stroke-width="0.2"/>
        <path id="Path_865" data-name="Path 865" d="M10.029,44.711H9.25V39.258a.388.388,0,0,1,.041-.174l.779-1.558.7.349-.738,1.475Z" transform="translate(-2.045 -8.295)" stroke="#707070" stroke-width="0.2"/>
        <path id="Path_866" data-name="Path 866" d="M10.029,44.711H9.25V39.258a.388.388,0,0,1,.041-.174l.779-1.558.7.349-.738,1.475Z" transform="translate(-2.045 -8.295)" fill="none" stroke="#000" stroke-width="0.2"/>
      </g>
    </g>
  </g>
</svg>
