<!-- icon666.com - MILLIONS vector ICONS FREE --><svg fill="none" viewBox="0 0 100 100" xmlns="http://www.w3.org/2000/svg"><g clip-rule="evenodd" fill="rgb(0,0,0)" fill-rule="evenodd"><path d="m64.2913 49.9999c0 7.8932-6.3987 14.2919-14.2919 14.2919s-14.292-6.3987-14.292-14.2919c0-7.8933 6.3988-14.292 14.292-14.292s14.2919 6.3987 14.2919 14.292zm-3 0c0 6.2363-5.0556 11.2919-11.2919 11.2919-6.2364 0-11.292-5.0556-11.292-11.2919 0-6.2364 5.0556-11.292 11.292-11.292 6.2363 0 11.2919 5.0556 11.2919 11.292z"></path><path d="m49.9996 73.2792c15.4033 0 29.1437-7.1198 38.1097-18.248 2.3715-2.9434 2.3715-7.1191 0-10.0625-8.966-11.1282-22.7064-18.248-38.1097-18.248-15.4032 0-29.1436 7.1198-38.1096 18.248-2.37156 2.9434-2.37156 7.1191 0 10.0625 8.966 11.1282 22.7064 18.248 38.1096 18.248zm0-43.5585c13.4403 0 25.5338 5.7736 33.9333 14.9837 2.746 3.0109 2.746 7.5802 0 10.5912-8.3995 9.21-20.493 14.9836-33.9333 14.9836s-25.5337-5.7736-33.9332-14.9836c-2.746-3.011-2.746-7.5803 0-10.5913 8.3995-9.21 20.4929-14.9836 33.9332-14.9836z"></path></g></svg>