<!-- icon666.com - MILLIONS vector ICONS FREE --><svg fill="none" viewBox="0 0 100 100" xmlns="http://www.w3.org/2000/svg"><g fill="rgb(0,0,0)"><path clip-rule="evenodd" d="m84.4477 18.0089c.5858-.5858.5858-1.5355 0-2.1213-.5857-.5858-1.5355-.5858-2.1213 0l-14.2727 14.2726c-5.5859-2.2196-11.6775-3.4397-18.0541-3.4397-16.0676 0-30.3257 7.7471-39.2427 19.7097-1.58138 2.1215-1.58149 5.0174-.0001 7.1388 4.8434 6.4978 11.2627 11.7519 18.6919 15.1963l-13.927 13.927c-.5858.5858-.5858 1.5355 0 2.1213s1.5356.5858 2.1214 0l14.7854-14.7855c.0037.0015.0074.0029.0111.0043l2.3369-2.3369c-.0038-.0013-.0076-.0027-.0114-.004l6.4318-6.4317c.0029.0022.0057.0045.0086.0067l2.1416-2.1416c-.0029-.0021-.0059-.0043-.0089-.0065l15.7802-15.7801c.0022.0029.0043.0059.0065.0089l2.1416-2.1416c-.0023-.0029-.0045-.0058-.0068-.0087l7.4875-7.4875c.0036.0016.0071.0032.0107.0048l2.2602-2.2603c-.0035-.0016-.0069-.0033-.0104-.0049zm-18.7188 14.4762c-4.9068-1.789-10.2043-2.7646-15.7293-2.7646-14.1671 0-26.8378 6.4149-35.2632 16.5075-1.8281 2.1899-1.8282 5.3534-.0001 7.5433 4.5616 5.4643 10.3677 9.8506 16.982 12.7244l7.322-7.322c-2.0801-2.4824-3.3324-5.6819-3.3324-9.1738 0-7.8933 6.3987-14.292 14.2919-14.292 3.492 0 6.6915 1.2524 9.1738 3.3325zm-8.6871 8.6871c-1.9308-1.5423-4.3787-2.4643-7.042-2.4643-6.2363 0-11.2919 5.0556-11.2919 11.292 0 2.6632.922 5.1112 2.4643 7.0419z" fill-rule="evenodd"></path><path d="m62.8917 43.823-2.2876 2.2876c.4448 1.2125.6876 2.5225.6876 3.8893 0 6.2363-5.0555 11.2919-11.2919 11.2919-1.3667 0-2.6767-.2428-3.8892-.6877l-2.2876 2.2876c1.8695.8974 3.9645 1.4001 6.1768 1.4001 7.8932 0 14.2919-6.3987 14.2919-14.2919 0-2.2124-.5026-4.3073-1.4-6.1769z"></path><path d="m49.9996 70.279c-4.1459 0-8.1637-.5494-11.9843-1.5796l-2.4232 2.4232c4.5547 1.4018 9.393 2.1564 14.4075 2.1564 16.0675 0 30.3256-7.7472 39.2427-19.7098 1.5813-2.1215 1.5815-5.0173.0001-7.1388-4.1189-5.5257-9.3773-10.152-15.4273-13.5308l-2.2107 2.2107c5.2421 2.8005 9.8777 6.5889 13.6585 11.1179 1.828 2.1898 1.8279 5.3534-.0002 7.5432-8.4253 10.0926-21.096 16.5076-35.2631 16.5076z"></path></g></svg>