<svg id="Group_2589" data-name="Group 2589" xmlns="http://www.w3.org/2000/svg" xmlns:xlink="http://www.w3.org/1999/xlink" width="38.056" height="21.704" viewBox="0 0 38.056 21.704">
  <defs>
    <clipPath id="clip-path">
      <rect id="Rectangle_2286" data-name="Rectangle 2286" width="38.056" height="21.704"/>
    </clipPath>
  </defs>
  <g id="Group_1218" data-name="Group 1218" clip-path="url(#clip-path)">
    <path id="Path_1531" data-name="Path 1531" d="M19.028,21.7a22.087,22.087,0,0,1-10.758-2.8A22.23,22.23,0,0,1,.43,11.523L0,10.852l.43-.671A22.085,22.085,0,0,1,29.786,2.8a22.229,22.229,0,0,1,7.839,7.385l.43.671-.43.671a22.228,22.228,0,0,1-7.839,7.385,22.088,22.088,0,0,1-10.759,2.8M2.975,10.852a19.51,19.51,0,0,0,16.052,8.363A19.51,19.51,0,0,0,35.08,10.852a19.588,19.588,0,0,0-32.105,0"/>
    <path id="Path_1532" data-name="Path 1532" d="M96.714,43.086a6.894,6.894,0,1,1,6.894-6.894,6.9,6.9,0,0,1-6.894,6.894m0-11.3a4.405,4.405,0,1,0,4.405,4.405,4.41,4.41,0,0,0-4.405-4.405" transform="translate(-77.686 -25.339)"/>
    <path id="Path_1533" data-name="Path 1533" d="M117.159,55.776H114.67c0-1.891,1.82-3.607,4.387-3.607v2.489c-.675,0-1.9.578-1.9,1.118" transform="translate(-99.179 -45.122)"/>
  </g>
</svg>
