<svg xmlns="http://www.w3.org/2000/svg" xmlns:xlink="http://www.w3.org/1999/xlink" width="25.774" height="27.336" viewBox="0 0 25.774 27.336">
  <defs>
    <clipPath id="clip-path">
      <rect id="Rectangle_2942" data-name="Rectangle 2942" width="25.774" height="27.336" fill="none" stroke="#707070" stroke-width="1"/>
    </clipPath>
  </defs>
  <g id="Group_1561" data-name="Group 1561" clip-path="url(#clip-path)">
    <circle id="Ellipse_552" data-name="Ellipse 552" cx="3.204" cy="3.204" r="3.204" transform="translate(13.538 8.549)" fill="none" stroke="#000" stroke-linecap="round" stroke-linejoin="round" stroke-width="1"/>
    <path id="Path_1621" data-name="Path 1621" d="M32.791,34.247a5.221,5.221,0,0,0-10.443,0Z" transform="translate(-10.828 -14.063)" fill="none" stroke="#000" stroke-linecap="round" stroke-linejoin="round" stroke-width="1"/>
    <line id="Line_933" data-name="Line 933" y1="4.717" transform="translate(2.735 14.86)" fill="none" stroke="#000" stroke-linecap="round" stroke-linejoin="round" stroke-width="1"/>
    <path id="Path_1622" data-name="Path 1622" d="M5.306,5.86V2.038A1.038,1.038,0,0,1,6.344,1H24.285A3.544,3.544,0,0,1,27.83,4.545V23.761a3.545,3.545,0,0,1-3.545,3.545H6.344a1.038,1.038,0,0,1-1.038-1.038V22.444" transform="translate(-2.571 -0.484)" fill="none" stroke="#000" stroke-linecap="round" stroke-linejoin="round" stroke-width="1"/>
    <line id="Line_934" data-name="Line 934" y1="4.717" transform="translate(2.735 7.76)" fill="none" stroke="#000" stroke-linecap="round" stroke-linejoin="round" stroke-width="1"/>
    <path id="Path_1623" data-name="Path 1623" d="M5.727,26.586H2.192a1.192,1.192,0,1,1,0-2.384H5.727a1.192,1.192,0,0,1,0,2.384Z" transform="translate(-0.485 -11.726)" fill="none" stroke="#000" stroke-linecap="round" stroke-linejoin="round" stroke-width="1"/>
    <path id="Path_1624" data-name="Path 1624" d="M5.727,40.36H2.192a1.192,1.192,0,1,1,0-2.384H5.727a1.192,1.192,0,0,1,0,2.384Z" transform="translate(-0.485 -18.4)" fill="none" stroke="#000" stroke-linecap="round" stroke-linejoin="round" stroke-width="1"/>
    <path id="Path_1625" data-name="Path 1625" d="M5.727,12.812H2.192a1.192,1.192,0,1,1,0-2.384H5.727a1.192,1.192,0,0,1,0,2.384Z" transform="translate(-0.485 -5.052)" fill="none" stroke="#000" stroke-linecap="round" stroke-linejoin="round" stroke-width="1"/>
    <line id="Line_935" data-name="Line 935" y2="26.305" transform="translate(8.387 0.516)" fill="none" stroke="#000" stroke-linecap="round" stroke-linejoin="round" stroke-width="1"/>
  </g>
</svg>
