<svg width="32" height="30" viewBox="0 0 32 30" fill="none" xmlns="http://www.w3.org/2000/svg">
<mask id="mask0_1354_257" style="mask-type:luminance" maskUnits="userSpaceOnUse" x="0" y="0" width="32" height="30">
<path d="M31.822 0H0V29.782H31.822V0Z" fill="white"/>
</mask>
<g mask="url(#mask0_1354_257)">
<path d="M4.2339 11.0586C4.2312 13.1021 4.79562 15.1062 5.86434 16.848C6.93306 18.5897 8.46415 20.0008 10.2872 20.924C12.1102 21.8472 14.1537 22.2465 16.1902 22.0773C18.2266 21.908 20.1762 21.177 21.8219 19.9656L27.2519 24.9476C27.7855 25.4305 28.4885 25.6828 29.2075 25.6494C29.9264 25.6161 30.603 25.2997 31.0896 24.7694C31.5762 24.2391 31.8333 23.5379 31.8049 22.8188C31.7765 22.0996 31.4648 21.4209 30.9379 20.9306L25.2929 15.7486C25.9964 14.2494 26.3541 12.6113 26.3395 10.9553C26.3248 9.29932 25.9383 7.66778 25.2083 6.18126C24.4784 4.69474 23.4238 3.39124 22.1224 2.36709C20.821 1.34294 19.3061 0.624312 17.6896 0.264315C16.0732 -0.0956826 14.3965 -0.0878475 12.7834 0.287241C11.1704 0.662329 9.66231 1.39508 8.37054 2.43135C7.07876 3.46762 6.03636 4.78092 5.32036 6.2742C4.60436 7.76747 4.23306 9.40255 4.2339 11.0586ZM23.3209 11.0586C23.3207 12.6465 22.8497 14.1987 21.9674 15.5189C21.085 16.8391 19.8311 17.8681 18.364 18.4756C16.8969 19.0832 15.2827 19.2421 13.7253 18.9323C12.1679 18.6225 10.7374 17.8578 9.61454 16.735C8.49172 15.6122 7.72705 14.1816 7.41722 12.6242C7.10739 11.0669 7.2663 9.45257 7.87388 7.98551C8.48145 6.51844 9.51039 5.26447 10.8306 4.38216C12.1508 3.49984 13.703 3.02881 15.2909 3.02861C16.3455 3.02835 17.3898 3.23587 18.3642 3.63932C19.3385 4.04277 20.2238 4.63425 20.9696 5.37996C21.7153 6.12566 22.3067 7.01099 22.7102 7.98535C23.1136 8.95971 23.3212 10.004 23.3209 11.0586Z" fill="#353839"/>
<path fill-rule="evenodd" clip-rule="evenodd" d="M21.3331 15.0477C21.2473 14.2043 20.863 13.4194 20.2495 12.8345C19.6359 12.2496 18.8336 11.9031 17.9871 11.8577V11.8477H17.6261L16.4381 14.1787L17.0381 14.5947L16.1381 16.1947L15.6611 12.7547H14.9171L14.4401 16.1947L13.5401 14.5947L14.1401 14.1787L12.9521 11.8477H12.7821C11.9011 11.849 11.0518 12.1769 10.3983 12.7679C9.7449 13.3589 9.33368 14.1711 9.24414 15.0477C9.81176 15.8954 10.551 16.6146 11.4141 17.1587V15.4037C11.4148 15.1925 11.4646 14.9843 11.5595 14.7957C11.6544 14.607 11.7919 14.443 11.9611 14.3167V17.4707C12.9688 17.9938 14.0858 18.2714 15.2211 18.281C16.3563 18.2905 17.4778 18.0317 18.4941 17.5257V14.2397C18.7117 14.3723 18.8885 14.5622 19.0051 14.7887C19.103 14.9789 19.1541 15.1897 19.1541 15.4037V17.1557C20.0162 16.6119 20.7548 15.8934 21.3221 15.0467" fill="#353839"/>
<path fill-rule="evenodd" clip-rule="evenodd" d="M12.9461 6.57833C12.8116 7.17218 12.7974 7.78696 12.9044 8.38638C13.0114 8.9858 13.2374 9.55771 13.5691 10.0683C13.6081 10.1153 13.6431 10.1613 13.6761 10.2053C13.8617 10.4603 14.1049 10.6677 14.3859 10.8108C14.667 10.9538 14.9778 11.0283 15.2931 11.0283C15.6085 11.0283 15.9193 10.9538 16.2003 10.8108C16.4814 10.6677 16.7246 10.4603 16.9101 10.2053C16.9431 10.1613 16.9791 10.1153 17.0171 10.0683C17.3488 9.55771 17.5749 8.9858 17.6819 8.38638C17.7889 7.78696 17.7747 7.17218 17.6401 6.57833C17.5199 6.0449 17.2217 5.56826 16.7946 5.22676C16.3675 4.88526 15.837 4.69922 15.2901 4.69922C14.7433 4.69922 14.2128 4.88526 13.7857 5.22676C13.3586 5.56826 13.0604 6.0449 12.9401 6.57833" fill="#353839"/>
<path fill-rule="evenodd" clip-rule="evenodd" d="M14.7329 11.8672L14.9649 12.5412H15.6219L15.8539 11.8672H14.7329Z" fill="#353839"/>
<path d="M3.879 14.2389L3.826 14.6209L3.168 13.4389L3.609 13.1339L2.736 11.4219H2.612C1.91863 11.4227 1.25396 11.6988 0.764149 12.1896C0.274332 12.6803 -0.00052999 13.3455 7.67238e-07 14.0389V19.9659C7.70414e-07 20.179 0.084655 20.3833 0.23534 20.534C0.386026 20.6847 0.590399 20.7694 0.803501 20.7694C1.0166 20.7694 1.22098 20.6847 1.37166 20.534C1.52235 20.3833 1.607 20.179 1.607 19.9659V14.0389C1.607 13.8836 1.64315 13.7305 1.71257 13.5917C1.782 13.4528 1.8828 13.332 2.007 13.2389V28.8769C2.007 29.1166 2.10224 29.3466 2.27178 29.5161C2.44131 29.6856 2.67125 29.7809 2.911 29.7809C3.15076 29.7809 3.38069 29.6856 3.55023 29.5161C3.71976 29.3466 3.815 29.1166 3.815 28.8769V21.3179H5V28.8759C5 29.1156 5.09524 29.3456 5.26478 29.5151C5.43431 29.6846 5.66425 29.7799 5.904 29.7799C6.14376 29.7799 6.37369 29.6846 6.54323 29.5151C6.71276 29.3456 6.808 29.1156 6.808 28.8759V19.3159C5.42204 17.8954 4.41491 16.1497 3.879 14.2389Z" fill="#353839"/>
<path d="M27.1021 10.1121C27.3442 9.73739 27.509 9.31812 27.587 8.87888C27.6649 8.43964 27.6544 7.98926 27.5561 7.55412C27.4856 7.20443 27.3068 6.8858 27.0452 6.64333C26.7835 6.40087 26.4522 6.24686 26.0981 6.20312C26.6545 7.43869 26.9928 8.7612 27.0981 10.1121" fill="#353839"/>
<path d="M7.29209 19.7902V19.9582C7.29209 20.1704 7.37637 20.3739 7.5264 20.5239C7.67643 20.674 7.87991 20.7582 8.09208 20.7582C8.20196 20.7577 8.31055 20.7346 8.41109 20.6903C8.01872 20.4102 7.6437 20.1067 7.28809 19.7812" fill="#353839"/>
<path d="M27.544 11.4258L27.068 12.3588C27.032 12.6788 26.986 12.9968 26.924 13.3128L27.113 13.4428L26.733 14.1228C26.6023 14.6079 26.441 15.0841 26.25 15.5488L28.189 17.3288V13.1818C28.3481 13.2785 28.4777 13.4168 28.564 13.5818C28.6357 13.7213 28.6731 13.8759 28.673 14.0328V17.7698L30.28 19.2448V14.0408C30.2774 13.374 30.0201 12.7334 29.5608 12.2501C29.1015 11.7668 28.4748 11.4773 27.809 11.4408V11.4338L27.544 11.4258Z" fill="#353839"/>
<path d="M3.26204 10.2169C3.32401 10.2881 3.39084 10.3549 3.46204 10.4169C3.53833 8.95413 3.88732 7.51848 4.49104 6.18391C4.47504 6.18391 4.46104 6.18391 4.44504 6.18391C4.04423 6.17621 3.65327 6.30851 3.33951 6.55802C3.02574 6.80754 2.8088 7.15866 2.72604 7.55091C2.62741 7.98706 2.61712 8.43855 2.69578 8.87874C2.77444 9.31893 2.94046 9.73891 3.18404 10.1139C3.21204 10.1489 3.23804 10.1819 3.26304 10.2139" fill="#353839"/>
<path d="M12.7002 22.6211V28.8811C12.7002 29.1208 12.7954 29.3508 12.965 29.5203C13.1345 29.6898 13.3644 29.7851 13.6042 29.7851C13.844 29.7851 14.0739 29.6898 14.2434 29.5203C14.413 29.3508 14.5082 29.1208 14.5082 28.8811V22.8811C13.8997 22.8411 13.2953 22.7542 12.7002 22.6211Z" fill="#353839"/>
<path d="M23.3911 22.4805V28.8805C23.3911 29.1202 23.4864 29.3502 23.6559 29.5197C23.8254 29.6892 24.0554 29.7845 24.2951 29.7845C24.5349 29.7845 24.7648 29.6892 24.9343 29.5197C25.1039 29.3502 25.1991 29.1202 25.1991 28.8805V24.1405L23.3911 22.4805Z" fill="#353839"/>
<path d="M26.7169 25.5346L26.3809 25.2266V28.8796C26.3809 29.1193 26.4761 29.3493 26.6456 29.5188C26.8152 29.6883 27.0451 29.7836 27.2849 29.7836C27.5246 29.7836 27.7545 29.6883 27.9241 29.5188C28.0936 29.3493 28.1889 29.1193 28.1889 28.8796V26.3406C27.6402 26.1955 27.135 25.9183 26.7169 25.5346Z" fill="#353839"/>
<path d="M15.6899 22.8943V28.8793C15.6899 29.1191 15.7852 29.349 15.9547 29.5185C16.1242 29.6881 16.3542 29.7833 16.5939 29.7833C16.8337 29.7833 17.0636 29.6881 17.2332 29.5185C17.4027 29.349 17.4979 29.1191 17.4979 28.8793V22.6953C16.9013 22.8086 16.2969 22.8744 15.6899 22.8943Z" fill="#353839"/>
</g>
</svg>
