<svg width="111" height="34" viewBox="0 0 111 34" fill="none" xmlns="http://www.w3.org/2000/svg">
<path d="M27.1667 12.0082H14.3232V15.5987H23.4197C22.9729 20.649 18.5148 22.7797 14.3232 22.7797C8.94129 22.7797 4.27484 18.7959 4.27484 13.2125C4.27484 7.76895 8.73504 3.59051 14.3232 3.59051C18.633 3.59051 21.1918 6.19976 21.1918 6.19976L23.8666 3.59051C23.8666 3.59051 20.4484 0 14.205 0C6.26646 0 0.113281 6.34167 0.113281 13.1578C0.113281 19.8623 5.90982 26.3986 14.4134 26.3986C21.9051 26.3986 27.3751 21.5451 27.3751 14.3904C27.3751 12.878 27.1667 12.0082 27.1667 12.0082Z" fill="#4285F4"/>
<path d="M37.6597 9.39453C32.3981 9.39453 28.6211 13.2932 28.6211 17.8102C28.6211 22.4104 32.2778 26.3678 37.7177 26.3678C42.6527 26.3678 46.666 22.8057 46.666 17.9238C46.6982 12.2836 42.0017 9.39453 37.6597 9.39453ZM37.7198 12.7336C40.3066 12.7336 42.773 14.6982 42.773 17.8954C42.773 21.0094 40.3345 23.0571 37.7198 23.0571C34.8366 23.0571 32.5764 20.8959 32.5764 17.8954C32.5764 14.9212 34.8065 12.7336 37.7198 12.7336Z" fill="#EA4335"/>
<path d="M57.3452 9.39453C52.0836 9.39453 48.3066 13.2932 48.3066 17.8102C48.3066 22.4104 51.9633 26.3678 57.4032 26.3678C62.3382 26.3678 66.3515 22.8057 66.3515 17.9238C66.3537 12.2836 61.655 9.39453 57.3452 9.39453ZM57.4054 12.7336C59.9921 12.7336 62.4585 14.6982 62.4585 17.8954C62.4585 21.0094 60.02 23.0571 57.4054 23.0571C54.5221 23.0571 52.262 20.8959 52.262 17.8954C52.2319 14.9212 54.4899 12.7336 57.4054 12.7336Z" fill="#FBBC05"/>
<path d="M76.6042 9.39453C71.7573 9.39453 67.9824 13.3784 67.9824 17.867C67.9824 22.972 72.3825 26.3678 76.544 26.3678C79.1007 26.3678 80.4693 25.415 81.479 24.2918V25.9745C81.479 28.8919 79.6056 30.6598 76.7524 30.6598C74.0174 30.6598 72.6209 28.7237 72.144 27.6309L68.6957 29.0055C69.9139 31.4464 72.3825 33.9989 76.7825 33.9989C81.5993 33.9989 85.256 31.1383 85.256 25.1615V9.89935H81.4812V11.3307C80.3189 10.1791 78.714 9.39453 76.6042 9.39453ZM76.9608 12.7336C79.3392 12.7336 81.7777 14.6414 81.7777 17.8954C81.7777 21.2061 79.3392 23.0287 76.9307 23.0287C74.344 23.0287 71.9657 21.0642 71.9657 17.9238C71.9356 14.6678 74.4342 12.7336 76.9608 12.7336Z" fill="#4285F4"/>
<path d="M101.997 9.39453C97.4483 9.39453 93.6133 12.8168 93.6133 17.867C93.6133 23.2254 97.8952 26.3962 102.443 26.3962C106.248 26.3962 108.597 24.4317 109.965 22.6658L106.843 20.7013C106.04 21.8792 104.674 23.0308 102.443 23.0308C99.9169 23.0308 98.7567 21.7129 98.0434 20.4499L110.113 15.7342L109.488 14.3596C108.33 11.6389 105.595 9.39453 101.997 9.39453ZM102.175 12.6485C103.81 12.6485 105 13.4615 105.505 14.4711L97.4483 17.6419C97.0916 15.1746 99.5602 12.6485 102.175 12.6485Z" fill="#EA4335"/>
<path d="M91.8301 0.871094H87.877V25.8952H91.8301V0.871094Z" fill="#34A853"/>
</svg>
