<svg xmlns="http://www.w3.org/2000/svg" xmlns:xlink="http://www.w3.org/1999/xlink" width="34.117" height="21.889" viewBox="0 0 34.117 21.889">
  <defs>
    <clipPath id="clip-path">
      <rect id="Rectangle_5847" data-name="Rectangle 5847" width="34.117" height="21.889" fill="none"/>
    </clipPath>
  </defs>
  <g id="Group_2518" data-name="Group 2518" transform="translate(0 0)">
    <g id="Group_2517" data-name="Group 2517" transform="translate(0 0)" clip-path="url(#clip-path)">
      <path id="Path_1741" data-name="Path 1741" d="M101.524,3.164a.535.535,0,0,0,.117-.449,2.261,2.261,0,0,1,.036-1.286,1.482,1.482,0,0,1,1.412-.317.53.53,0,0,0,.211,0,1.482,1.482,0,0,1,1.412.317,2.263,2.263,0,0,1,.036,1.285.535.535,0,0,0,.117.45.647.647,0,0,1,0,.2,1.563,1.563,0,0,1-.211.584.528.528,0,0,0-.075.154,6.33,6.33,0,0,0-.153.635,2.5,2.5,0,0,1-.436.577l-.024.025a.934.934,0,0,1-1.535,0l-.024-.024a2.492,2.492,0,0,1-.436-.577c-.052-.3-.149-.622-.152-.636a.534.534,0,0,0-.076-.154,1.567,1.567,0,0,1-.211-.584.639.639,0,0,1,0-.2m4.584,4.345a11.776,11.776,0,0,1,1.436.421,11.9,11.9,0,0,1,.329,3.042,28.77,28.77,0,0,1-4.149.463V7.674c.311-.3.645-.613.9-.839.014.028.028.054.044.08.156.26.407.332,1.443.594m-7.6,3.463a11.915,11.915,0,0,1,.329-3.042,11.814,11.814,0,0,1,1.436-.421c1.037-.262,1.287-.334,1.443-.594.016-.026.03-.052.044-.08.252.226.585.538.9.839v3.761a28.762,28.762,0,0,1-4.149-.463m2.363-4.761-.016.038c-.191.062-.559.155-.843.227a6.9,6.9,0,0,0-1.829.6c-.174.12-.5.343-.668,2.253-.189,2.1.024,2.309.138,2.424s.256.255,2.151.5a27.86,27.86,0,0,0,3.386.25,27.86,27.86,0,0,0,3.386-.25c1.9-.247,2.043-.395,2.151-.5s.327-.327.138-2.423c-.172-1.91-.495-2.133-.668-2.253a6.9,6.9,0,0,0-1.829-.6c-.284-.072-.653-.165-.843-.227l-.016-.038a1.3,1.3,0,0,0-.386-.59,1.792,1.792,0,0,0,.346-.694c.029-.165.078-.353.106-.451a2.642,2.642,0,0,0,.339-.96,1.432,1.432,0,0,0-.083-.81A2.623,2.623,0,0,0,105.5.716a2.49,2.49,0,0,0-2.31-.669,2.489,2.489,0,0,0-2.31.669,2.625,2.625,0,0,0-.328,1.99,1.43,1.43,0,0,0-.083.81,2.638,2.638,0,0,0,.339.96c.027.1.077.286.106.451a1.775,1.775,0,0,0,.344.691,1.291,1.291,0,0,0-.39.593" transform="translate(-74.825 0)" fill="#1c2025"/>
      <path id="Path_1742" data-name="Path 1742" d="M40.129,60.272A19.042,19.042,0,0,1,45.065,58.4h.024c.252.016.77.5,1.193,1.032-1.054,1.059-1.054,1.454-1.054,1.592a4.337,4.337,0,0,0,.591,1.554l.02,2.271c-4.862-.036-5.766-.567-5.926-.8a7.131,7.131,0,0,1,.216-3.775M49.254,58.4a18.844,18.844,0,0,1,4.956,1.871,7.107,7.107,0,0,1,.221,3.778c-.161.233-1.066.764-5.927.8l.02-2.271a4.335,4.335,0,0,0,.591-1.554c0-.138,0-.532-1.054-1.591.424-.528.947-1.017,1.193-1.032M38.7,62.047a5.4,5.4,0,0,0,.333,2.606c.454.655,1.657,1.261,7.342,1.261a.533.533,0,0,0,.533-.538l-.026-2.948a.536.536,0,0,0-.07-.259,5.88,5.88,0,0,1-.512-1.108,6.092,6.092,0,0,1,.87-1.01,6.12,6.12,0,0,1,.87,1.008,5.811,5.811,0,0,1-.512,1.11.536.536,0,0,0-.07.259l-.026,2.948a.533.533,0,0,0,.533.538c5.685,0,6.888-.606,7.342-1.261a5.393,5.393,0,0,0,.334-2.606,4.372,4.372,0,0,0-.706-2.561,17.359,17.359,0,0,0-5.748-2.153c-.774.048-1.577.932-2.016,1.5-.439-.568-1.242-1.451-2.016-1.5a17.288,17.288,0,0,0-5.748,2.153,4.372,4.372,0,0,0-.706,2.561" transform="translate(-29.705 -44.024)" fill="#1c2025"/>
      <path id="Path_1743" data-name="Path 1743" d="M63.9,14.017a2.259,2.259,0,0,0-.038,1.075,1.545,1.545,0,0,1-.17.764,1.31,1.31,0,0,0-.139.522,7.581,7.581,0,0,1-.5,1.1c-.173.325-1.133,1.536-2.076,1.536s-1.9-1.21-2.075-1.536a7.591,7.591,0,0,1-.5-1.1,1.306,1.306,0,0,0-.138-.522,1.545,1.545,0,0,1-.17-.764,2.255,2.255,0,0,0-.038-1.075,4.066,4.066,0,0,1-.2-1.85c.048-.135.1-.291.146-.456.154-.505.475-1.557.847-1.593a6.486,6.486,0,0,0,.984-.193,2.073,2.073,0,0,1,1.033-.105c.264.074.533.161.8.257a.535.535,0,0,0,.311.015,1.42,1.42,0,0,1,.71-.021c.117.014.258.03.434.048.372.037.693,1.088.847,1.593.05.165.1.321.146.456a4.086,4.086,0,0,1-.2,1.85m1.011.34a4.956,4.956,0,0,0,.2-2.545h0c-.04-.113-.084-.259-.131-.412-.272-.89-.683-2.236-1.762-2.343-.168-.017-.3-.033-.414-.046a2.434,2.434,0,0,0-.936.009c-.242-.084-.484-.16-.723-.227a2.939,2.939,0,0,0-1.585.1,5.568,5.568,0,0,1-.827.165c-1.079.107-1.49,1.453-1.761,2.343-.047.153-.091.3-.131.412a4.952,4.952,0,0,0,.2,2.545l.011.03a1.825,1.825,0,0,1-.018.559,2.51,2.51,0,0,0,.241,1.316c.019.045.042.1.055.139a4.036,4.036,0,0,0,.631,1.573c.222.417,1.457,2.1,3.016,2.1s2.794-1.683,3.016-2.1a4.042,4.042,0,0,0,.631-1.574c.013-.037.037-.094.055-.139a2.512,2.512,0,0,0,.241-1.316,1.831,1.831,0,0,1-.018-.559l.011-.03" transform="translate(-43.567 -6.695)" fill="#1c2025"/>
      <path id="Path_1744" data-name="Path 1744" d="M5.9,1.068c1.138,0,1.764.7,1.764,1.973A3.713,3.713,0,0,1,7.546,4a2.155,2.155,0,0,1-.839.134H6.694A.533.533,0,0,0,6.681,5.2c.072,0,.15,0,.233,0A1.393,1.393,0,0,1,5.9,5.683c-.956,0-1.765-1.21-1.765-2.642,0-1.272.627-1.973,1.765-1.973M8.911,7.71a11.894,11.894,0,0,1,1.486.437A12.1,12.1,0,0,1,10.74,11.3a29.455,29.455,0,0,1-4.3.48V7.889c.328-.317.681-.648.943-.882.017.034.035.068.054.1.158.263.414.336,1.476.6M5.9,6.921,5.715,6.74c.063.005.126.009.189.009s.126,0,.189-.009L5.9,6.921M1.07,11.3a12.1,12.1,0,0,1,.343-3.156A11.9,11.9,0,0,1,2.9,7.71c1.062-.269,1.319-.342,1.476-.6.019-.032.037-.065.054-.1.263.234.615.565.944.882v3.894a29.459,29.459,0,0,1-4.3-.48M3.532,6.395l-.019.045c-.195.064-.58.162-.876.236A7.092,7.092,0,0,0,.759,7.3c-.176.122-.5.349-.681,2.311-.193,2.148.022,2.364.138,2.479s.259.259,2.205.513a28.7,28.7,0,0,0,3.484.257A28.7,28.7,0,0,0,9.389,12.6c1.946-.254,2.1-.4,2.2-.513s.331-.331.138-2.48c-.176-1.961-.5-2.189-.681-2.311a7.1,7.1,0,0,0-1.878-.621C8.876,6.6,8.491,6.5,8.3,6.44l-.019-.045a1.219,1.219,0,0,0-.445-.633A3.551,3.551,0,0,0,8.21,5.2a.532.532,0,0,0,.053-.368.531.531,0,0,0,.231-.287,4.709,4.709,0,0,0,.241-1.507A2.724,2.724,0,0,0,5.9,0,2.724,2.724,0,0,0,3.074,3.041a4.3,4.3,0,0,0,.908,2.718,1.213,1.213,0,0,0-.45.636" transform="translate(0 -0.002)" fill="#1c2025"/>
    </g>
  </g>
</svg>
