<svg width="31" height="42" viewBox="0 0 31 42" fill="none" xmlns="http://www.w3.org/2000/svg">
<mask id="mask0_1356_334" style="mask-type:luminance" maskUnits="userSpaceOnUse" x="0" y="0" width="31" height="42">
<path d="M30.629 0.683594H0V41.9996H30.629V0.683594Z" fill="white"/>
</mask>
<g mask="url(#mask0_1356_334)">
<path d="M25.552 41.9981H3.323C1.014 41.9981 0 39.8631 0 37.5431V19.9231C0 17.6131 1.014 15.7891 3.323 15.7891H25.552C27.861 15.7891 30.629 17.6131 30.629 19.9231V37.5431C30.629 39.8631 27.861 41.9981 25.552 41.9981ZM3.323 18.0741C2.562 18.0741 2.286 19.1611 2.286 19.9231V37.5431C2.286 38.3151 2.562 38.9511 3.323 38.9511H25.552C26.313 38.9511 26.21 38.3151 26.21 37.5431V19.9231C26.21 19.1611 26.31 18.0741 25.552 18.0741H3.323Z" fill="black"/>
<path d="M23.923 17.3126H20.871V10.1896C20.8973 9.31788 20.7489 8.44971 20.4347 7.6362C20.1204 6.82268 19.6466 6.08025 19.041 5.4526C18.4811 4.83453 17.7978 4.34061 17.0354 4.00269C16.2729 3.66476 15.4481 3.49032 14.614 3.4906C13.7506 3.49812 12.8975 3.67888 12.1052 4.02215C11.3129 4.36543 10.5976 4.86424 10.0016 5.48903C9.40565 6.11382 8.94115 6.85188 8.63564 7.65948C8.33012 8.46708 8.18982 9.32778 8.22305 10.1906V17.3136H4.57104V10.1896C4.65335 7.64756 5.71833 5.23651 7.54195 3.46361C9.36557 1.69072 11.8057 0.694175 14.349 0.683598C16.8774 0.681173 19.3038 1.67989 21.0979 3.46141C22.892 5.24293 23.9077 7.66231 23.923 10.1906V17.3126Z" fill="black"/>
<path d="M14.4369 32.5286C13.7476 32.5286 13.0738 32.3242 12.5007 31.9413C11.9276 31.5583 11.481 31.014 11.2172 30.3772C10.9534 29.7404 10.8844 29.0397 11.0189 28.3637C11.1533 27.6877 11.4853 27.0667 11.9726 26.5793C12.46 26.0919 13.081 25.76 13.757 25.6256C14.433 25.4911 15.1338 25.5601 15.7706 25.8239C16.4074 26.0876 16.9516 26.5343 17.3346 27.1074C17.7175 27.6805 17.9219 28.3543 17.9219 29.0436C17.9209 29.9675 17.5533 30.8534 16.9 31.5067C16.2467 32.16 15.3609 32.5275 14.4369 32.5286ZM14.4369 28.3656C14.3028 28.3656 14.1717 28.4054 14.0602 28.4799C13.9487 28.5544 13.8618 28.6602 13.8105 28.7841C13.7592 28.908 13.7458 29.0443 13.7719 29.1759C13.7981 29.3074 13.8627 29.4282 13.9575 29.523C14.0523 29.6178 14.1731 29.6824 14.3046 29.7086C14.4362 29.7347 14.5725 29.7213 14.6964 29.67C14.8202 29.6187 14.9261 29.5318 15.0006 29.4203C15.0751 29.3088 15.1149 29.1777 15.1149 29.0436C15.1149 28.8638 15.0435 28.6913 14.9163 28.5642C14.7892 28.437 14.6167 28.3656 14.4369 28.3656Z" fill="black"/>
<path d="M16.3039 31.332H14.1709V35.142H16.3039V31.332Z" fill="black"/>
</g>
</svg>
