<svg xmlns="http://www.w3.org/2000/svg" xmlns:xlink="http://www.w3.org/1999/xlink" width="44.166" height="59.951" viewBox="0 0 44.166 59.951">
  <defs>
    <clipPath id="clip-path">
      <rect id="Rectangle_1156" data-name="Rectangle 1156" width="44.166" height="59.951" fill="#f15f12"/>
    </clipPath>
  </defs>
  <g id="Group_1446" data-name="Group 1446" transform="translate(0 0)">
    <g id="Group_485" data-name="Group 485" transform="translate(0 0)" clip-path="url(#clip-path)">
      <path id="Path_1078" data-name="Path 1078" d="M30.476,28.311l-.79-1.211a.869.869,0,0,0-1.2-.253l-7.11,4.641a.867.867,0,0,0-.253,1.2l.792,1.211a.867.867,0,0,0,1.2.253l7.112-4.641a.868.868,0,0,0,.252-1.2" transform="translate(13.55 17.246)" fill="#f15f12"/>
      <path id="Rectangle_1155" data-name="Rectangle 1155" d="M.527,0H9.7a.527.527,0,0,1,.527.527V2.655a.527.527,0,0,1-.527.527H.526A.526.526,0,0,1,0,2.655V.527A.527.527,0,0,1,.527,0Z" transform="translate(21.613 29.922) rotate(-33.111)" fill="#f15f12"/>
      <path id="Path_1079" data-name="Path 1079" d="M41.769,42.1l-.79-1.211a.867.867,0,0,0-1.2-.253l-.844.551-6.424-9.844.843-.551a.867.867,0,0,0,.253-1.2l-.792-1.211a.866.866,0,0,0-1.2-.252L24.5,32.768a.87.87,0,0,0-.252,1.2l.79,1.211a.866.866,0,0,0,1.2.252l.844-.55,1.573,2.411-4.742,3.051-.525-.8a.865.865,0,0,0-1.2-.252l-1.211.79a.865.865,0,0,0-.252,1.2l.513.787-7.887,5.076,9.09-32.291,7.238,7.074L16.906,0,0,54.409l4.291,5.541,20.36-12.661.719,1.1a.866.866,0,0,0,1.2.252l1.211-.79a.869.869,0,0,0,.253-1.2l-.551-.843,4.724-3.081,1.3,2-.843.55a.867.867,0,0,0-.253,1.2l.792,1.211a.867.867,0,0,0,1.2.253L41.517,43.3a.868.868,0,0,0,.252-1.2" transform="translate(0 -0.001)" fill="#f15f12"/>
    </g>
  </g>
</svg>
