<svg xmlns="http://www.w3.org/2000/svg" xmlns:xlink="http://www.w3.org/1999/xlink" width="39.166" height="31.953" viewBox="0 0 39.166 31.953">
  <defs>
    <clipPath id="clip-path">
      <rect id="Rectangle_922" data-name="Rectangle 922" width="39.166" height="31.953" fill="none"/>
    </clipPath>
  </defs>
  <g id="Group_501" data-name="Group 501" transform="translate(0 0)">
    <g id="Group_451" data-name="Group 451" transform="translate(0 0)" clip-path="url(#clip-path)">
      <path id="Path_877" data-name="Path 877" d="M.767,60.461H38.915a.267.267,0,0,1,.267.267v.815a1.394,1.394,0,0,1-1.394,1.395H1.895A1.394,1.394,0,0,1,.5,61.543v-.815A.268.268,0,0,1,.767,60.461Z" transform="translate(-0.258 -31.226)" fill="none" stroke="#000" stroke-linecap="round" stroke-linejoin="round" stroke-width="1"/>
      <line id="Line_228" data-name="Line 228" x2="9.553" transform="translate(25.659 9.917)" fill="none" stroke="#000" stroke-linecap="round" stroke-linejoin="round" stroke-width="1"/>
      <line id="Line_229" data-name="Line 229" x2="9.553" transform="translate(3.954 9.917)" fill="none" stroke="#000" stroke-linecap="round" stroke-linejoin="round" stroke-width="1"/>
      <path id="Path_878" data-name="Path 878" d="M54.167,12.744h6.188a2.833,2.833,0,0,1,2.833,2.833V31.909L66.7,35.83" transform="translate(-27.976 -6.582)" fill="none" stroke="#000" stroke-linecap="round" stroke-linejoin="round" stroke-width="1"/>
      <path id="Path_879" data-name="Path 879" d="M.9,35.83l3.517-3.921V15.577a2.833,2.833,0,0,1,2.833-2.833h6.317" transform="translate(-0.467 -6.582)" fill="none" stroke="#000" stroke-linecap="round" stroke-linejoin="round" stroke-width="1"/>
      <line id="Line_230" data-name="Line 230" x2="31.258" transform="translate(3.954 25.341)" fill="none" stroke="#000" stroke-linecap="round" stroke-linejoin="round" stroke-width="1"/>
      <line id="Line_231" data-name="Line 231" x2="0.781" transform="translate(18.997 27.412)" fill="none" stroke="#000" stroke-linecap="round" stroke-linejoin="round" stroke-width="1"/>
      <line id="Line_232" data-name="Line 232" x2="0.781" transform="translate(21.732 27.412)" fill="none" stroke="#000" stroke-linecap="round" stroke-linejoin="round" stroke-width="1"/>
      <line id="Line_233" data-name="Line 233" x2="0.781" transform="translate(13.527 27.412)" fill="none" stroke="#000" stroke-linecap="round" stroke-linejoin="round" stroke-width="1"/>
      <line id="Line_234" data-name="Line 234" x2="0.781" transform="translate(16.262 27.412)" fill="none" stroke="#000" stroke-linecap="round" stroke-linejoin="round" stroke-width="1"/>
      <line id="Line_235" data-name="Line 235" x2="0.781" transform="translate(10.792 27.412)" fill="none" stroke="#000" stroke-linecap="round" stroke-linejoin="round" stroke-width="1"/>
      <line id="Line_236" data-name="Line 236" x2="0.781" transform="translate(5.321 27.412)" fill="none" stroke="#000" stroke-linecap="round" stroke-linejoin="round" stroke-width="1"/>
      <line id="Line_237" data-name="Line 237" x2="0.781" transform="translate(8.056 27.412)" fill="none" stroke="#000" stroke-linecap="round" stroke-linejoin="round" stroke-width="1"/>
      <line id="Line_238" data-name="Line 238" x2="0.781" transform="translate(30.328 27.412)" fill="none" stroke="#000" stroke-linecap="round" stroke-linejoin="round" stroke-width="1"/>
      <line id="Line_239" data-name="Line 239" x2="0.781" transform="translate(33.063 27.412)" fill="none" stroke="#000" stroke-linecap="round" stroke-linejoin="round" stroke-width="1"/>
      <line id="Line_240" data-name="Line 240" x2="0.781" transform="translate(27.593 27.412)" fill="none" stroke="#000" stroke-linecap="round" stroke-linejoin="round" stroke-width="1"/>
      <path id="Path_880" data-name="Path 880" d="M40.233,4.851c0,2.4-1.753,4.611-3.916,4.611S32.4,7.254,32.4,4.851A4.15,4.15,0,0,1,36.317.5,4.15,4.15,0,0,1,40.233,4.851Z" transform="translate(-16.734 -0.258)" fill="none" stroke="#000" stroke-linecap="round" stroke-linejoin="round" stroke-width="1"/>
      <path id="Path_881" data-name="Path 881" d="M38.767,33.237h-13.5a1.191,1.191,0,0,1-1.191-1.191V30.42a7.745,7.745,0,0,1,7.745-7.745h.4a7.745,7.745,0,0,1,7.745,7.745v1.626A1.191,1.191,0,0,1,38.767,33.237Z" transform="translate(-12.432 -11.711)" fill="none" stroke="#000" stroke-linecap="round" stroke-linejoin="round" stroke-width="1"/>
      <line id="Line_241" data-name="Line 241" y2="4.161" transform="translate(15.102 17.365)" fill="none" stroke="#000" stroke-linecap="round" stroke-linejoin="round" stroke-width="1"/>
      <line id="Line_242" data-name="Line 242" y2="4.161" transform="translate(24.064 17.365)" fill="none" stroke="#000" stroke-linecap="round" stroke-linejoin="round" stroke-width="1"/>
    </g>
  </g>
</svg>
