<svg width="12" height="12" viewBox="0 0 12 12" fill="none" xmlns="http://www.w3.org/2000/svg">
<g clip-path="url(#clip0_284_34)">
<path d="M1.81668 1.90332C1.54194 1.90332 1.27845 2.01359 1.08417 2.20986C0.889903 2.40614 0.780762 2.67235 0.780762 2.94992V9.04434C0.780762 9.30089 0.837939 9.57987 0.950275 9.8191C0.956557 9.83978 0.964778 9.8598 0.974828 9.8789C1.11919 10.1534 1.33843 10.3803 1.60657 10.5328C1.87472 10.6852 2.1805 10.7568 2.48767 10.739H8.51717C8.73503 10.7379 8.94682 10.6664 9.12155 10.5349C9.29628 10.4035 9.42476 10.2189 9.48818 10.0084L10.8191 5.99186L10.8207 5.98643C10.8693 5.83179 10.8816 5.66788 10.8568 5.50761C10.832 5.34734 10.7707 5.19507 10.6777 5.06279C10.5848 4.93051 10.4627 4.82183 10.3211 4.7453C10.1796 4.66877 10.0223 4.62649 9.86185 4.62177V4.28196C9.86185 3.70395 9.42495 3.26254 8.85284 3.26254H6.10598C6.01018 3.26161 5.91855 3.22282 5.8507 3.15449L5.02735 2.30769L5.02466 2.30463C4.76877 2.04757 4.42258 1.90329 4.06172 1.90332H1.81668ZM9.18917 4.62177H4.10578C3.78147 4.62185 3.46511 4.72317 3.19997 4.91185C2.93483 5.10053 2.73386 5.36736 2.62456 5.67584L2.62355 5.67856C1.9983 7.48939 1.64952 8.4524 1.45343 8.96041V2.94992C1.45343 2.7474 1.61622 2.58293 1.81668 2.58293H4.06172C4.24424 2.58295 4.41937 2.65573 4.54908 2.78546L5.37243 3.63225L5.37545 3.63531C5.5694 3.83089 5.83195 3.94118 6.10598 3.94216H8.85284C9.05329 3.94216 9.18917 4.07944 9.18917 4.28196V4.62177ZM1.93944 9.94211C1.88885 9.91358 1.841 9.88036 1.7965 9.84288L1.81062 9.82216C1.82643 9.79735 1.84123 9.7705 1.85502 9.744C1.8826 9.68963 1.91623 9.61487 1.95928 9.51157C2.12981 9.10041 2.487 8.13774 3.25822 5.90351C3.32104 5.72726 3.43613 5.57487 3.58781 5.46711C3.73949 5.35936 3.92036 5.30148 4.10578 5.30138H9.83191C9.88902 5.30154 9.94529 5.31522 9.99621 5.34132C10.0471 5.36741 10.0913 5.40519 10.1252 5.45164C10.1591 5.49808 10.1817 5.5519 10.1913 5.60877C10.2009 5.66564 10.1971 5.72399 10.1804 5.77915L8.84847 9.79769C8.84787 9.7996 8.84731 9.80153 8.84678 9.80347L8.84544 9.80856C8.82412 9.88066 8.78046 9.94393 8.72088 9.98907C8.6613 10.0342 8.58895 10.0588 8.51448 10.0593H2.47758C2.47052 10.0593 2.46312 10.0593 2.45572 10.06C2.27598 10.0717 2.09672 10.0308 1.93944 9.94211Z" fill="black"/>
<path d="M1.93944 9.94211C1.88885 9.91358 1.841 9.88036 1.7965 9.84288L1.81062 9.82216C1.82643 9.79735 1.84123 9.7705 1.85502 9.744C1.8826 9.68963 1.91623 9.61487 1.95928 9.51157C2.12981 9.10041 2.487 8.13774 3.25822 5.90351C3.32104 5.72726 3.43613 5.57487 3.58781 5.46711C3.73949 5.35936 3.92036 5.30148 4.10578 5.30138H9.83191C9.88902 5.30154 9.94529 5.31522 9.99621 5.34132C10.0471 5.36741 10.0913 5.40519 10.1252 5.45164C10.1591 5.49808 10.1817 5.5519 10.1913 5.60877C10.2009 5.66564 10.1971 5.72399 10.1804 5.77915L8.84847 9.79769C8.84787 9.7996 8.84731 9.80153 8.84678 9.80347L8.84544 9.80856C8.82412 9.88066 8.78046 9.94393 8.72088 9.98907C8.6613 10.0342 8.58895 10.0588 8.51448 10.0593H2.47758C2.47052 10.0593 2.46312 10.0593 2.45572 10.06C2.27598 10.0717 2.09672 10.0308 1.93944 9.94211Z" fill="black"/>
</g>
<defs>
<clipPath id="clip0_284_34">
<rect width="10.7628" height="10.8738" fill="white" transform="translate(0.444336 0.204102)"/>
</clipPath>
</defs>
</svg>
