<svg width="9" height="9" viewBox="0 0 9 9" fill="none" xmlns="http://www.w3.org/2000/svg">
<g clip-path="url(#clip0_285_39)">
<path d="M2.06801 1.74354H9.10498V2.54788H2.06801V1.74354ZM2.06801 4.48212H9.10498V5.28646H2.06801V4.48212ZM2.06801 7.25901H9.10498V8.06335H2.06801V7.25901ZM0.568325 2.86706H0.850958V1.41797H0.343373V1.70523H0.568325V2.86706ZM1.07014 5.34391H0.522181L0.602933 5.27369L0.775973 5.12049C0.977854 4.94174 1.05861 4.8013 1.05861 4.61618C1.05834 4.54892 1.04511 4.48251 1.01978 4.42137C0.994457 4.36023 0.957629 4.30579 0.911761 4.26167C0.865892 4.21755 0.812041 4.18478 0.753808 4.16556C0.695576 4.14633 0.634305 4.14108 0.574093 4.15017C0.5103 4.1462 0.446483 4.1575 0.386997 4.18331C0.327512 4.20912 0.273759 4.24884 0.229408 4.29974C0.185057 4.35064 0.151151 4.41154 0.130006 4.47827C0.108862 4.545 0.100975 4.61599 0.106884 4.6864H0.406821C0.402743 4.65786 0.403856 4.6287 0.410095 4.60064C0.416334 4.57258 0.427573 4.54618 0.443154 4.52299C0.458734 4.4998 0.478342 4.48029 0.500827 4.4656C0.523311 4.45091 0.548221 4.44133 0.574093 4.43744C0.621516 4.43744 0.666997 4.45829 0.70053 4.4954C0.734063 4.53251 0.752901 4.58284 0.752901 4.63533C0.750884 4.68941 0.738532 4.74241 0.716659 4.79082C0.694786 4.83924 0.663889 4.88197 0.626005 4.91621L0.124188 5.39498V5.64395H1.07014V5.34391ZM0.862494 7.61649C0.912843 7.58755 0.954744 7.5434 0.983331 7.48917C1.01192 7.43493 1.02602 7.37283 1.024 7.31008C1.02071 7.25021 1.00607 7.19177 0.981042 7.13856C0.956015 7.08536 0.921154 7.03857 0.878725 7.00125C0.836297 6.96392 0.787248 6.93689 0.734766 6.92191C0.682283 6.90693 0.627541 6.90433 0.574093 6.91429C0.515479 6.90867 0.456459 6.9171 0.40105 6.93899C0.345641 6.96088 0.295146 6.99573 0.253 7.04116C0.210854 7.0866 0.178049 7.14155 0.156816 7.20227C0.135583 7.263 0.126422 7.32807 0.129956 7.39307H0.418357C0.415135 7.34327 0.429611 7.29405 0.458702 7.25589C0.487793 7.21773 0.529197 7.19366 0.574093 7.18879C0.595843 7.184 0.618281 7.18461 0.639793 7.19057C0.661305 7.19653 0.681354 7.2077 0.698497 7.22327C0.71564 7.23884 0.729449 7.25842 0.738931 7.28061C0.748413 7.30279 0.753331 7.32703 0.753331 7.35157C0.753331 7.37612 0.748413 7.40035 0.738931 7.42254C0.729449 7.44473 0.71564 7.46431 0.698497 7.47988C0.681354 7.49545 0.661305 7.50662 0.639793 7.51258C0.618281 7.51854 0.595843 7.51915 0.574093 7.51436H0.522181V7.75694H0.574093C0.706757 7.75694 0.78751 7.82716 0.78751 7.94206C0.78774 7.96868 0.782781 7.99504 0.77297 8.01934C0.76316 8.04364 0.74873 8.06532 0.730664 8.08289C0.712597 8.10046 0.69132 8.11352 0.668281 8.12116C0.645243 8.1288 0.620986 8.13086 0.597165 8.12719C0.570172 8.12804 0.543299 8.12289 0.518136 8.11205C0.492974 8.1012 0.470032 8.08488 0.450671 8.06405C0.431309 8.04321 0.415921 8.01829 0.405417 7.99076C0.394912 7.96323 0.389506 7.93364 0.389517 7.90376H0.11842C0.114819 7.97352 0.124878 8.04333 0.147909 8.10839C0.170939 8.17346 0.206398 8.23225 0.251859 8.28074C0.297319 8.32924 0.351709 8.36629 0.411307 8.38937C0.470904 8.41244 0.534303 8.421 0.597165 8.41445C0.656458 8.4225 0.716617 8.41669 0.773753 8.3974C0.830889 8.3781 0.883728 8.34574 0.928853 8.30242C0.973978 8.25909 1.01038 8.20577 1.03572 8.1459C1.06105 8.08602 1.07474 8.02093 1.07591 7.95483C1.07903 7.88028 1.0598 7.80668 1.0212 7.74549C0.982599 7.6843 0.926802 7.63894 0.862494 7.61649Z" fill="black"/>
</g>
<defs>
<clipPath id="clip0_285_39">
<rect width="9" height="9" fill="white"/>
</clipPath>
</defs>
</svg>
