<svg width="102" height="22" viewBox="0 0 102 22" fill="none" xmlns="http://www.w3.org/2000/svg">
<path d="M9.76919 21.9947C6.81334 21.9947 4.44653 21.0385 2.66771 19.126C0.88888 17.2135 0 14.7258 0 11.6619C0 8.37044 0.905893 5.74393 2.71874 3.78344C4.53053 1.82399 6.99728 0.84375 10.1179 0.84375C12.9962 0.84375 15.3151 1.79581 17.0738 3.69784C18.8324 5.60091 19.7117 8.08962 19.7117 11.1619C19.7117 14.5014 18.81 17.1415 17.0078 19.0821C15.2056 21.0228 12.792 21.9947 9.76919 21.9947ZM9.94356 3.01302C7.75325 3.01302 5.97549 3.78866 4.60815 5.33993C3.24187 6.8912 2.55819 8.92789 2.55819 11.449C2.55819 13.9711 3.22379 15.9994 4.55711 17.5371C5.88937 19.0738 7.62673 19.8411 9.76813 19.8411C12.0552 19.8411 13.8574 19.1093 15.1758 17.6436C16.4932 16.18 17.1524 14.1287 17.1524 11.4928C17.1524 8.79114 16.5124 6.70225 15.2333 5.22719C13.9552 3.75003 12.1913 3.01302 9.94356 3.01302Z" fill="#0072C6"/>
<path d="M34.7838 21.6543H32.4V19.342H32.3415C31.3527 21.1115 29.8216 21.9967 27.7483 21.9967C24.2012 21.9967 22.4277 19.9235 22.4277 15.7738V7.03906H24.7977V15.4021C24.7977 18.4849 25.9992 20.0268 28.4032 20.0268C29.5664 20.0268 30.5234 19.6071 31.274 18.7647C32.0247 17.9222 32.4011 16.8219 32.4011 15.4595V7.03906H34.7849L34.7838 21.6543Z" fill="#0072C6"/>
<path d="M45.7557 21.5078C45.1932 21.8137 44.4521 21.9651 43.5313 21.9651C40.9242 21.9651 39.6207 20.538 39.6207 17.6829V9.03398H37.0625V7.03591H39.6207V3.46778L42.0045 2.71094V7.03591H45.7546V9.03398H42.0045V17.2685C42.0045 18.2487 42.1736 18.9481 42.5138 19.3667C42.853 19.7864 43.4154 19.9952 44.2001 19.9952C44.8009 19.9952 45.3197 19.8344 45.7557 19.5098V21.5078Z" fill="#0072C6"/>
<path d="M51.2744 21.6374H48.8906V0H51.2744V21.6374Z" fill="#0072C6"/>
<path d="M61.5776 21.9759C59.3777 21.9759 57.6212 21.2931 56.3081 19.9276C54.995 18.5622 54.3379 16.752 54.3379 14.497C54.3379 12.0417 55.0216 10.125 56.3878 8.74488C57.7541 7.36583 59.5999 6.67578 61.9253 6.67578C64.1454 6.67578 65.8774 7.34704 67.1235 8.68851C68.3675 10.03 68.9906 11.8903 68.9906 14.2694C68.9906 16.6006 68.3197 18.4672 66.9779 19.8713C65.635 21.2743 63.8359 21.9759 61.5776 21.9759ZM61.752 8.64466C60.2209 8.64466 59.0098 9.1562 58.1188 10.1793C57.2268 11.2023 56.7813 12.6127 56.7813 14.4114C56.7813 16.1433 57.2321 17.5088 58.1326 18.5079C59.0332 19.5069 60.24 20.007 61.752 20.007C63.2926 20.007 64.4782 19.5174 65.3075 18.5371C66.1358 17.5579 66.5494 16.1642 66.5494 14.355C66.5494 12.5281 66.1358 11.1199 65.3075 10.1302C64.4782 9.13949 63.2926 8.64466 61.752 8.64466Z" fill="#0072C6"/>
<path d="M78.2768 21.9759C76.0769 21.9759 74.3204 21.2931 73.0073 19.9276C71.6942 18.5622 71.0371 16.752 71.0371 14.497C71.0371 12.0417 71.7208 10.125 73.0871 8.74488C74.4533 7.36583 76.2992 6.67578 78.6256 6.67578C80.8446 6.67578 82.5777 7.34704 83.8228 8.68851C85.0678 10.03 85.6909 11.8903 85.6909 14.2694C85.6909 16.6006 85.02 18.4672 83.6771 19.8713C82.3342 21.2754 80.5341 21.9759 78.2768 21.9759ZM78.4512 8.64466C76.9201 8.64466 75.708 9.1562 74.817 10.1793C73.9249 11.2023 73.4794 12.6127 73.4794 14.4114C73.4794 16.1433 73.9302 17.5088 74.8308 18.5079C75.7314 19.5069 76.9382 20.007 78.4501 20.007C79.9908 20.007 81.1753 19.5174 82.0046 18.5371C82.8329 17.5579 83.2475 16.1642 83.2475 14.355C83.2475 12.5281 82.8329 11.1199 82.0046 10.1302C81.1763 9.13949 79.9918 8.64466 78.4512 8.64466Z" fill="#0072C6"/>
<path d="M101.113 21.6374H97.7691L91.1982 14.6149H91.1397V21.6374H88.7559V0H91.1397V13.7161H91.1982L97.449 7.02247H100.574L93.6692 14.0731L101.113 21.6374Z" fill="#0072C6"/>
</svg>
