<svg width="9" height="10" viewBox="0 0 9 10" fill="none" xmlns="http://www.w3.org/2000/svg">
<path d="M6.13632 2.13312L7.00844 3.12938M6.69715 1.25545L4.33897 3.95057C4.21713 4.08963 4.13403 4.26681 4.10015 4.45976L3.88232 5.70591L4.97268 5.45649C5.1415 5.4179 5.29632 5.32331 5.41821 5.18401L7.77638 2.48889C7.84724 2.4079 7.90346 2.31176 7.94181 2.20594C7.98016 2.10012 7.9999 1.98671 7.9999 1.87217C7.9999 1.75764 7.98016 1.64422 7.94181 1.53841C7.90346 1.43259 7.84724 1.33644 7.77638 1.25545C7.70552 1.17446 7.62139 1.11022 7.5288 1.06639C7.43621 1.02256 7.33698 1 7.23676 1C7.13655 1 7.03731 1.02256 6.94472 1.06639C6.85214 1.11022 6.76801 1.17446 6.69715 1.25545Z" stroke="#212529" stroke-width="0.7" stroke-linecap="round" stroke-linejoin="round"/>
<path d="M7.17647 6.64739V8.05919C7.17647 8.30881 7.0897 8.54821 6.93526 8.72472C6.78082 8.90123 6.57135 9.00039 6.35294 9.00039H1.82353C1.60512 9.00039 1.39565 8.90123 1.24121 8.72472C1.08676 8.54821 1 8.30881 1 8.05919V2.8826C1 2.63298 1.08676 2.39359 1.24121 2.21708C1.39565 2.04057 1.60512 1.94141 1.82353 1.94141H3.05882" stroke="#212529" stroke-width="0.7" stroke-linecap="round" stroke-linejoin="round"/>
</svg>
