<svg width="100" height="100" viewBox="0 0 100 100" fill="none" xmlns="http://www.w3.org/2000/svg">
<path d="M27.5625 87.5C25.7125 87.5 24.1291 86.8403 22.8125 85.5208C21.493 84.2042 20.8333 82.6208 20.8333 80.7708V70.8333C20.8333 70.2417 21.0333 69.7472 21.4333 69.35C21.8333 68.95 22.3291 68.75 22.9208 68.75C23.5097 68.75 24.0041 68.95 24.4041 69.35C24.8014 69.75 25 70.2444 25 70.8333V80.7708C25 81.5181 25.2402 82.1319 25.7208 82.6125C26.2014 83.0931 26.8152 83.3333 27.5625 83.3333H72.4375C73.1847 83.3333 73.7986 83.0931 74.2791 82.6125C74.7597 82.1319 75 81.5181 75 80.7708V70.8333C75 70.2417 75.2 69.7472 75.6 69.35C76 68.9528 76.4958 68.7528 77.0875 68.75C77.6764 68.75 78.1708 68.95 78.5708 69.35C78.968 69.75 79.1666 70.2444 79.1666 70.8333V80.7708C79.1666 82.6208 78.5069 84.2042 77.1875 85.5208C75.8708 86.8403 74.2875 87.5 72.4375 87.5H27.5625ZM20.8333 19.2292C20.8333 17.3792 21.493 15.7958 22.8125 14.4792C24.1291 13.1597 25.7125 12.5 27.5625 12.5H57.6208C58.5402 12.5 59.418 12.6806 60.2541 13.0417C61.0875 13.4083 61.8069 13.8931 62.4125 14.4958L77.1666 29.25C77.7694 29.8528 78.2527 30.5722 78.6166 31.4083C78.9805 32.2417 79.1625 33.1194 79.1625 34.0417V45.8333C79.1625 46.425 78.9625 46.9194 78.5625 47.3167C78.1625 47.7167 77.6666 47.9167 77.075 47.9167C76.4861 47.9167 75.9916 47.7167 75.5916 47.3167C75.1972 46.9194 75 46.425 75 45.8333V33.3333H61.6666C60.7222 33.3333 59.9305 33.0139 59.2916 32.375C58.6527 31.7361 58.3333 30.9444 58.3333 30V16.6667H27.5625C26.8152 16.6667 26.2014 16.9069 25.7208 17.3875C25.2402 17.8681 25 18.4819 25 19.2292V45.8333C25 46.425 24.8 46.9194 24.4 47.3167C24 47.7139 23.5041 47.9139 22.9125 47.9167C22.3236 47.9167 21.8291 47.7167 21.4291 47.3167C21.0319 46.9194 20.8333 46.425 20.8333 45.8333V19.2292ZM40.3833 60.4167C39.7944 60.4167 39.3 60.2167 38.9 59.8167C38.5 59.4167 38.3 58.9222 38.3 58.3333C38.3 57.7444 38.5 57.25 38.9 56.85C39.3 56.4528 39.7944 56.2542 40.3833 56.2542H59.6166C60.2055 56.2542 60.7 56.4542 61.1 56.8542C61.5 57.2542 61.7 57.75 61.7 58.3417C61.7 58.9333 61.5 59.4278 61.1 59.825C60.7 60.2222 60.2055 60.4208 59.6166 60.4208H40.3833V60.4167ZM72.1166 60.4167C71.525 60.4167 71.0291 60.2167 70.6291 59.8167C70.2319 59.4167 70.0333 58.9208 70.0333 58.3292C70.0333 57.7375 70.2319 57.2431 70.6291 56.8458C71.0291 56.4486 71.525 56.25 72.1166 56.25H91.3458C91.9375 56.25 92.4319 56.45 92.8291 56.85C93.2291 57.25 93.4291 57.7458 93.4291 58.3375C93.4291 58.9292 93.2291 59.4236 92.8291 59.8208C92.4319 60.2181 91.9375 60.4167 91.3458 60.4167H72.1166ZM8.65413 60.4167C8.06247 60.4167 7.56802 60.2167 7.1708 59.8167C6.7708 59.4167 6.5708 58.9208 6.5708 58.3292C6.5708 57.7375 6.7708 57.2431 7.1708 56.8458C7.56802 56.4486 8.06247 56.25 8.65413 56.25H27.8833C28.475 56.25 28.9708 56.45 29.3708 56.85C29.768 57.25 29.9666 57.7458 29.9666 58.3375C29.9666 58.9292 29.768 59.4236 29.3708 59.8208C28.9708 60.2181 28.475 60.4167 27.8833 60.4167H8.65413Z" fill="black"/>
</svg>
