<svg width="11" height="11" viewBox="0 0 11 11" fill="none" xmlns="http://www.w3.org/2000/svg">
<path d="M1 4.6C1 2.90305 1 2.05435 1.586 1.5274C2.1715 1 3.1145 1 5 1H6C7.8855 1 8.8285 1 9.414 1.5274C10 2.05435 10 2.90305 10 4.6V6.4C10 8.09695 10 8.94565 9.414 9.4726C8.8285 10 7.8855 10 6 10H5C3.1145 10 2.1715 10 1.586 9.4726C1 8.94565 1 8.09695 1 6.4V4.6Z" stroke="black" stroke-width="0.7"/>
<path d="M3.5 5.5002H7.5M3.5 3.7002H7.5M3.5 7.3002H6.2105" stroke="black" stroke-width="0.7" stroke-linecap="round"/>
</svg>
