<svg id="Group_2505" data-name="Group 2505" xmlns="http://www.w3.org/2000/svg" xmlns:xlink="http://www.w3.org/1999/xlink" width="20" height="20" viewBox="0 0 20 20">
  <defs>
    <clipPath id="clip-path">
      <rect id="Rectangle_2220" data-name="Rectangle 2220" width="20" height="20" fill="none"/>
    </clipPath>
  </defs>
  <g id="Group_1079" data-name="Group 1079" clip-path="url(#clip-path)">
    <path id="Path_1527" data-name="Path 1527" d="M8.646,17.293A8.621,8.621,0,1,1,11.9,16.66a8.617,8.617,0,0,1-3.253.633m0-15.836a7.189,7.189,0,1,0,5.086,2.1,7.17,7.17,0,0,0-5.086-2.1"/>
    <rect id="Rectangle_2219" data-name="Rectangle 2219" width="1.454" height="7.41" transform="translate(13.732 14.76) rotate(-45)"/>
    <path id="Path_1528" data-name="Path 1528" d="M38.665,44.4a5.644,5.644,0,0,1,.4-2.172,5.417,5.417,0,0,1,1.178-1.91,6.274,6.274,0,0,1,3.925-1.659v1.454a4.683,4.683,0,0,0-2.9,1.233,4.142,4.142,0,0,0-1.192,3.034Z" transform="translate(-35.683 -35.682)"/>
  </g>
</svg>
