<svg id="Group_3681" data-name="Group 3681" xmlns="http://www.w3.org/2000/svg" xmlns:xlink="http://www.w3.org/1999/xlink" width="50" height="41.562" viewBox="0 0 50 41.562">
  <defs>
    <clipPath id="clip-path">
      <rect id="Rectangle_5343" data-name="Rectangle 5343" width="50" height="41.562" fill="none" stroke="#000" stroke-width="1.5"/>
    </clipPath>
  </defs>
  <line id="Line_726" data-name="Line 726" transform="translate(50 9.075)" fill="none" stroke="#000" stroke-linecap="round" stroke-linejoin="round" stroke-width="1.5"/>
  <line id="Line_727" data-name="Line 727" transform="translate(50 9.075)" fill="none" stroke="#000" stroke-linecap="round" stroke-linejoin="round" stroke-width="1.5"/>
  <line id="Line_728" data-name="Line 728" transform="translate(12.854 9.075)" fill="none" stroke="#000" stroke-linecap="round" stroke-linejoin="round" stroke-width="1.5"/>
  <g id="Group_2346" data-name="Group 2346">
    <g id="Group_2345" data-name="Group 2345" clip-path="url(#clip-path)">
      <path id="Path_1683" data-name="Path 1683" d="M191.819,12.736A8.236,8.236,0,1,1,183.584,4.5,8.236,8.236,0,0,1,191.819,12.736Z" transform="translate(-142.658 -3.661)" fill="none" stroke="#000" stroke-linecap="round" stroke-linejoin="round" stroke-width="1.5"/>
      <path id="Path_1684" data-name="Path 1684" d="M195.4,34.456l3.385,3.385,6.442-6.442" transform="translate(-158.975 -25.545)" fill="none" stroke="#000" stroke-linecap="round" stroke-linejoin="round" stroke-width="1.5"/>
      <line id="Line_729" data-name="Line 729" x2="22.396" transform="translate(11.544 22.074)" fill="none" stroke="#000" stroke-linecap="round" stroke-linejoin="round" stroke-width="1.5"/>
      <line id="Line_730" data-name="Line 730" x1="4.092" transform="translate(34.943 28.781)" fill="none" stroke="#000" stroke-linecap="round" stroke-linejoin="round" stroke-width="1.5"/>
      <line id="Line_731" data-name="Line 731" x1="23.257" transform="translate(6.447 28.781)" fill="none" stroke="#000" stroke-linecap="round" stroke-linejoin="round" stroke-width="1.5"/>
      <line id="Line_732" data-name="Line 732" x1="18.663" transform="translate(20.373 33.074)" fill="none" stroke="#000" stroke-linecap="round" stroke-linejoin="round" stroke-width="1.5"/>
      <line id="Line_733" data-name="Line 733" x1="8.185" transform="translate(6.447 33.074)" fill="none" stroke="#000" stroke-linecap="round" stroke-linejoin="round" stroke-width="1.5"/>
      <path id="Path_1685" data-name="Path 1685" d="M48.305,45.817V62.854a3.7,3.7,0,0,1-3.7,3.7H8.2a3.7,3.7,0,0,1-3.7-3.7V35.448a3.7,3.7,0,0,1,3.7-3.7H33.365" transform="translate(-3.661 -25.829)" fill="none" stroke="#000" stroke-linecap="round" stroke-linejoin="round" stroke-width="1.5"/>
      <line id="Line_734" data-name="Line 734" x2="28.865" transform="translate(0.839 11.803)" fill="none" stroke="#000" stroke-linecap="round" stroke-linejoin="round" stroke-width="1.5"/>
    </g>
  </g>
</svg>
