<svg width="14" height="14" viewBox="0 0 14 14" fill="none" xmlns="http://www.w3.org/2000/svg">
<path d="M6.35714 7H1.89286C1.39975 7 1 7.39975 1 7.89286V12.3571C1 12.8503 1.39975 13.25 1.89286 13.25H6.35714C6.85025 13.25 7.25 12.8503 7.25 12.3571V7.89286C7.25 7.39975 6.85025 7 6.35714 7Z" stroke="#212529" stroke-width="0.5" stroke-linecap="round" stroke-linejoin="round"/>
<path d="M4 6.5V4.89286C4 4.39975 4.39975 4 4.89286 4H9.35714C9.85025 4 10.25 4.39975 10.25 4.89286V9.35714C10.25 9.85025 9.85025 10.25 9.35714 10.25H7.38032" stroke="#212529" stroke-width="0.5" stroke-linecap="round" stroke-linejoin="round"/>
<path d="M7 3.5V1.89286C7 1.39975 7.39975 1 7.89286 1H12.3571C12.8503 1 13.25 1.39975 13.25 1.89286V6.35714C13.25 6.85025 12.8503 7.25 12.3571 7.25H10.3803" stroke="#212529" stroke-width="0.5" stroke-linecap="round" stroke-linejoin="round"/>
</svg>
