<svg xmlns="http://www.w3.org/2000/svg" xmlns:xlink="http://www.w3.org/1999/xlink" width="39.385" height="44.383" viewBox="0 0 39.385 44.383">
  <defs>
    <clipPath id="clip-path">
      <rect id="Rectangle_2104" data-name="Rectangle 2104" width="39.385" height="44.383" fill="none"/>
    </clipPath>
  </defs>
  <g id="Group_1178" data-name="Group 1178" transform="translate(0 0)">
    <line id="Line_534" data-name="Line 534" transform="translate(14.052 10.097)" fill="none" stroke="#050605" stroke-linecap="round" stroke-linejoin="round" stroke-width="1"/>
    <line id="Line_535" data-name="Line 535" transform="translate(19.692 10.097)" fill="none" stroke="#050605" stroke-linecap="round" stroke-linejoin="round" stroke-width="1"/>
    <line id="Line_536" data-name="Line 536" transform="translate(25.333 10.097)" fill="none" stroke="#050605" stroke-linecap="round" stroke-linejoin="round" stroke-width="1"/>
    <g id="Group_1001" data-name="Group 1001" transform="translate(0 0)">
      <g id="Group_1000" data-name="Group 1000" clip-path="url(#clip-path)">
        <path id="Path_1407" data-name="Path 1407" d="M21.082,19.812h6.3v7.127L34.5,19.812h1.774a2.724,2.724,0,0,0,2.726-2.723V3.225A2.727,2.727,0,0,0,36.279.5H3.225A2.725,2.725,0,0,0,.5,3.225V17.089a2.722,2.722,0,0,0,2.725,2.723H10.1" transform="translate(-0.06 -0.06)" fill="none" stroke="#050605" stroke-linecap="round" stroke-linejoin="round" stroke-width="1"/>
        <path id="Path_1408" data-name="Path 1408" d="M.5,30.553H7.106V47.617H.5" transform="translate(-0.06 -3.674)" fill="none" stroke="#050605" stroke-linecap="round" stroke-linejoin="round" stroke-width="1"/>
        <path id="Path_1409" data-name="Path 1409" d="M17.52,34.354a7.859,7.859,0,0,0,2.641-7.34c-.69-4.606-2.763-6.605-4.9-5.5-1.9.978.55,5.382-1.957,7.462a13.932,13.932,0,0,1-5.291,2.691" transform="translate(-0.963 -2.551)" fill="none" stroke="#050605" stroke-linecap="round" stroke-linejoin="round" stroke-width="1"/>
        <path id="Path_1410" data-name="Path 1410" d="M19.681,32.752h4.751c3.063,0,3.34,3.929,2.316,5.836a4.419,4.419,0,0,0-.54,2.1c.005,2.219-.568,6.412-4.987,6.412H13.373a6.166,6.166,0,0,1-3.748-1.327,2.428,2.428,0,0,0-1.616-.554" transform="translate(-0.963 -3.939)" fill="none" stroke="#050605" stroke-linecap="round" stroke-linejoin="round" stroke-width="1"/>
      </g>
    </g>
  </g>
</svg>
