<svg xmlns="http://www.w3.org/2000/svg" xmlns:xlink="http://www.w3.org/1999/xlink" width="35.079" height="28.573" viewBox="0 0 35.079 28.573">
  <defs>
    <clipPath id="clip-path">
      <rect id="Rectangle_6426" data-name="Rectangle 6426" width="35.079" height="28.573" fill="none"/>
    </clipPath>
  </defs>
  <g id="Group_3677" data-name="Group 3677" transform="translate(0 0)">
    <g id="Group_3676" data-name="Group 3676" transform="translate(0 0)" clip-path="url(#clip-path)">
      <path id="Path_2036" data-name="Path 2036" d="M37.184,3.949c0,1.9-1.39,3.655-3.1,3.655s-3.1-1.75-3.1-3.655A3.291,3.291,0,0,1,34.08.5,3.291,3.291,0,0,1,37.184,3.949Z" transform="translate(-5.706 -0.092)" fill="none" stroke="#000" stroke-linecap="round" stroke-linejoin="round" stroke-width="1"/>
      <path id="Path_2037" data-name="Path 2037" d="M34.555,10.919h0a6.3,6.3,0,0,1,6.3,6.3v1.107a.969.969,0,0,1-.969.968H33.552" transform="translate(-6.18 -2.012)" fill="none" stroke="#000" stroke-linecap="round" stroke-linejoin="round" stroke-width="1"/>
      <line id="Line_1167" data-name="Line 1167" y2="3.298" transform="translate(31.927 13.981)" fill="none" stroke="#000" stroke-linecap="round" stroke-linejoin="round" stroke-width="1"/>
      <path id="Path_2038" data-name="Path 2038" d="M17.229,14.014c0,2.267-1.654,4.35-3.695,4.35S9.84,16.281,9.84,14.014a3.916,3.916,0,0,1,3.694-4.105A3.916,3.916,0,0,1,17.229,14.014Z" transform="translate(-1.813 -1.826)" fill="none" stroke="#000" stroke-linecap="round" stroke-linejoin="round" stroke-width="1"/>
      <path id="Path_2039" data-name="Path 2039" d="M19.018,32.274H6.336a1.153,1.153,0,0,1-1.154-1.153V29.8a7.494,7.494,0,1,1,14.989,0v1.318A1.153,1.153,0,0,1,19.018,32.274Z" transform="translate(-0.955 -4.11)" fill="none" stroke="#000" stroke-linecap="round" stroke-linejoin="round" stroke-width="1"/>
      <line id="Line_1168" data-name="Line 1168" y2="3.926" transform="translate(7.494 24.239)" fill="none" stroke="#000" stroke-linecap="round" stroke-linejoin="round" stroke-width="1"/>
      <line id="Line_1169" data-name="Line 1169" y2="3.926" transform="translate(15.95 24.239)" fill="none" stroke="#000" stroke-linecap="round" stroke-linejoin="round" stroke-width="1"/>
      <path id="Path_2040" data-name="Path 2040" d="M31.295,14.014c0,2.267-1.654,4.35-3.695,4.35s-3.694-2.083-3.694-4.35A3.916,3.916,0,0,1,27.6,9.909,3.916,3.916,0,0,1,31.295,14.014Z" transform="translate(-4.404 -1.826)" fill="none" stroke="#000" stroke-linecap="round" stroke-linejoin="round" stroke-width="1"/>
      <path id="Path_2041" data-name="Path 2041" d="M23.554,23.453A7.5,7.5,0,0,1,35.03,29.8v1.318a1.153,1.153,0,0,1-1.154,1.153H25.593" transform="translate(-4.339 -4.11)" fill="none" stroke="#000" stroke-linecap="round" stroke-linejoin="round" stroke-width="1"/>
      <line id="Line_1170" data-name="Line 1170" y2="3.926" transform="translate(27.424 24.239)" fill="none" stroke="#000" stroke-linecap="round" stroke-linejoin="round" stroke-width="1"/>
      <path id="Path_2042" data-name="Path 2042" d="M4.414,3.949c0,1.9,1.39,3.655,3.1,3.655s3.1-1.75,3.1-3.655A3.291,3.291,0,0,0,7.518.5,3.291,3.291,0,0,0,4.414,3.949Z" transform="translate(-0.813 -0.092)" fill="none" stroke="#000" stroke-linecap="round" stroke-linejoin="round" stroke-width="1"/>
      <path id="Path_2043" data-name="Path 2043" d="M6.8,10.919h0a6.3,6.3,0,0,0-6.3,6.3v1.107a.969.969,0,0,0,.969.968H7.8" transform="translate(-0.092 -2.012)" fill="none" stroke="#000" stroke-linecap="round" stroke-linejoin="round" stroke-width="1"/>
      <line id="Line_1171" data-name="Line 1171" y2="3.298" transform="translate(3.153 13.981)" fill="none" stroke="#000" stroke-linecap="round" stroke-linejoin="round" stroke-width="1"/>
      <path id="Path_2044" data-name="Path 2044" d="M17.6,3.949c0,1.9,1.39,3.655,3.1,3.655s3.1-1.75,3.1-3.655A3.291,3.291,0,0,0,20.7.5,3.291,3.291,0,0,0,17.6,3.949Z" transform="translate(-3.241 -0.092)" fill="none" stroke="#000" stroke-linecap="round" stroke-linejoin="round" stroke-width="1"/>
      <path id="Path_2045" data-name="Path 2045" d="M22.171,10.976a6.41,6.41,0,0,0-.854-.057A6.342,6.342,0,0,0,20.283,11" transform="translate(-3.736 -2.012)" fill="none" stroke="#000" stroke-linecap="round" stroke-linejoin="round" stroke-width="1"/>
    </g>
  </g>
</svg>
