<svg width="21" height="21" viewBox="0 0 21 21" fill="none" xmlns="http://www.w3.org/2000/svg">
<mask id="mask0_1299_298" style="mask-type:luminance" maskUnits="userSpaceOnUse" x="0" y="0" width="21" height="21">
<path d="M20.715 0.574219H0.286011V20.9992H20.715V0.574219Z" fill="white"/>
</mask>
<g mask="url(#mask0_1299_298)">
<path d="M10.496 20.9981C8.47644 20.9978 6.50227 20.3989 4.82292 19.2771C3.14357 18.1553 1.83439 16.5609 1.0608 14.6953C0.287211 12.8298 0.0839123 10.7768 0.476592 8.79578C0.869271 6.81474 1.84031 4.99454 3.26702 3.56514C4.69627 2.13709 6.51665 1.16462 8.49826 0.770548C10.4799 0.376473 12.5338 0.578471 14.4007 1.35103C16.2676 2.12359 17.8636 3.43205 18.9873 5.11117C20.111 6.79028 20.7118 8.76473 20.714 10.7851C20.7142 12.1268 20.4499 13.4553 19.9364 14.6948C19.4229 15.9343 18.6702 17.0604 17.7212 18.0089C16.7723 18.9573 15.6458 19.7095 14.4061 20.2224C13.1663 20.7353 11.8377 20.9989 10.496 20.9981ZM10.479 1.96214C8.73494 1.96669 7.03133 2.48803 5.5834 3.46032C4.13548 4.43261 3.00819 5.81222 2.34395 7.42486C1.67972 9.03751 1.50833 10.8108 1.85144 12.5208C2.19455 14.2308 3.03677 15.8008 4.2717 17.0324C5.50663 18.264 7.07886 19.1019 8.78979 19.4404C10.5007 19.7788 12.2736 19.6026 13.8844 18.934C15.4953 18.2654 16.8718 17.1344 17.8401 15.6838C18.8085 14.2332 19.3252 12.5282 19.325 10.7841C19.3249 9.62363 19.0958 8.47455 18.6509 7.40271C18.206 6.33087 17.5541 5.35732 16.7323 4.53784C15.9106 3.71835 14.9353 3.06902 13.8623 2.62704C12.7892 2.18506 11.6395 1.95911 10.479 1.96214Z" fill="#F2A006"/>
<path d="M14.817 15.835L10.296 11.074V5.45703H11.357V10.497L15.764 14.851L14.817 15.835Z" fill="#F2A006"/>
<path d="M11.352 0.707031H10.296V2.59203H11.352V0.707031Z" fill="#F2A006"/>
<path d="M11.352 18.4258H10.296V20.2358H11.352V18.4258Z" fill="#F2A006"/>
<path d="M2.52899 10.2812H0.718994V11.3372H2.52899V10.2812Z" fill="#F2A006"/>
<path d="M20.2501 10.2812H18.4401V11.3372H20.2501V10.2812Z" fill="#F2A006"/>
</g>
</svg>
