<svg xmlns="http://www.w3.org/2000/svg" xmlns:xlink="http://www.w3.org/1999/xlink" width="70" height="71.595" viewBox="0 0 70 71.595">
  <defs>
    <clipPath id="clip-path">
      <rect id="Rectangle_2108" data-name="Rectangle 2108" width="70" height="71.595" fill="none"/>
    </clipPath>
  </defs>
  <g id="Group_1179" data-name="Group 1179" transform="translate(0 0)">
    <path id="Path_1421" data-name="Path 1421" d="M10.048,36.571h-5.3v5.3" transform="translate(0 23.915)" fill="none" stroke="#1a1818" stroke-linecap="round" stroke-linejoin="round" stroke-width="1"/>
    <g id="Group_1008" data-name="Group 1008" transform="translate(0 0)">
      <g id="Group_1007" data-name="Group 1007" clip-path="url(#clip-path)">
        <path id="Path_1422" data-name="Path 1422" d="M38.2,48.668a35.168,35.168,0,0,1-6.379.646,31.889,31.889,0,0,1-22.3-7.963c-1.083-.92-4.779-4.781-4.779-4.781" transform="translate(2.379 18.342)" fill="none" stroke="#1a1818" stroke-linecap="round" stroke-linejoin="round" stroke-width="1"/>
        <path id="Path_1423" data-name="Path 1423" d="M43.056,13.727A32.666,32.666,0,0,1,44.99,35.716" transform="translate(21.595 6.885)" fill="none" stroke="#1a1818" stroke-linecap="round" stroke-width="1"/>
        <path id="Path_1424" data-name="Path 1424" d="M3.506,47.547A32.982,32.982,0,0,1,.5,33.955,33.5,33.5,0,0,1,33.953.5a31.883,31.883,0,0,1,22.3,7.964c1.083.92,4.779,4.781,4.779,4.781" transform="translate(0.251 0.25)" fill="none" stroke="#1a1818" stroke-linecap="round" stroke-linejoin="round" stroke-width="1"/>
        <path id="Path_1425" data-name="Path 1425" d="M35.509,11.649h7.964V3.684" transform="translate(17.81 1.848)" fill="none" stroke="#1a1818" stroke-linecap="round" stroke-linejoin="round" stroke-width="1"/>
        <path id="Path_1426" data-name="Path 1426" d="M39.753,45.594a4.779,4.779,0,1,1,4.779,4.779A4.779,4.779,0,0,1,39.753,45.594Z" transform="translate(19.939 20.471)" fill="none" stroke="#1a1818" stroke-linecap="round" stroke-linejoin="round" stroke-width="1"/>
        <path id="Path_1427" data-name="Path 1427" d="M30.205,38.167a4.779,4.779,0,1,1,4.779,4.779A4.779,4.779,0,0,1,30.205,38.167Z" transform="translate(15.15 16.746)" fill="none" stroke="#1a1818" stroke-linecap="round" stroke-linejoin="round" stroke-width="1"/>
        <line id="Line_537" data-name="Line 537" y1="20.71" x2="17.523" transform="translate(48.541 50.134)" fill="none" stroke="#1a1818" stroke-linecap="round" stroke-linejoin="round" stroke-width="1"/>
        <ellipse id="Ellipse_473" data-name="Ellipse 473" cx="11.151" cy="4.779" rx="11.151" ry="4.779" transform="translate(15.088 32.612)" fill="none" stroke="#1a1818" stroke-linecap="round" stroke-linejoin="round" stroke-width="1"/>
        <path id="Path_1428" data-name="Path 1428" d="M32.349,24.9v7.964c0,2.64-4.993,4.779-11.151,4.779s-11.151-2.14-11.151-4.779V24.9" transform="translate(5.04 12.49)" fill="none" stroke="#1a1818" stroke-linecap="round" stroke-linejoin="round" stroke-width="1"/>
        <path id="Path_1429" data-name="Path 1429" d="M37.64,19.6v7.964c0,2.409-4.153,4.4-9.557,4.731" transform="translate(14.085 9.829)" fill="none" stroke="#1a1818" stroke-linecap="round" stroke-linejoin="round" stroke-width="1"/>
        <ellipse id="Ellipse_474" data-name="Ellipse 474" cx="11.151" cy="4.779" rx="11.151" ry="4.779" transform="translate(29.425 16.682)" fill="none" stroke="#1a1818" stroke-linecap="round" stroke-linejoin="round" stroke-width="1"/>
        <line id="Line_538" data-name="Line 538" y1="6.373" transform="translate(29.425 21.461)" fill="none" stroke="#1a1818" stroke-linecap="round" stroke-linejoin="round" stroke-width="1"/>
        <path id="Path_1430" data-name="Path 1430" d="M37.841,14.293v7.964c0,2.5-4.464,4.545-10.157,4.761" transform="translate(13.885 7.168)" fill="none" stroke="#1a1818" stroke-linecap="round" stroke-linejoin="round" stroke-width="1"/>
      </g>
    </g>
  </g>
</svg>
