<svg xmlns="http://www.w3.org/2000/svg" xmlns:xlink="http://www.w3.org/1999/xlink" width="40.221" height="32.721" viewBox="0 0 40.221 32.721">
  <defs>
    <clipPath id="clip-path">
      <rect id="Rectangle_2336" data-name="Rectangle 2336" width="40.221" height="32.721" fill="none" stroke="#707070" stroke-width="1.5"/>
    </clipPath>
  </defs>
  <g id="Group_1173" data-name="Group 1173" transform="translate(0 0)">
    <g id="Group_1172" data-name="Group 1172" transform="translate(0 0)" clip-path="url(#clip-path)">
      <path id="Path_1560" data-name="Path 1560" d="M47.369,4.476c0,2.2-1.6,4.214-3.578,4.214s-3.578-2.018-3.578-4.214a3.6,3.6,0,1,1,7.157,0Z" transform="translate(-11.189 -0.139)" fill="none" stroke="#1a1818" stroke-linecap="round" stroke-linejoin="round" stroke-width="1.5"/>
      <path id="Path_1561" data-name="Path 1561" d="M44.724,14.076h0a7.259,7.259,0,0,1,7.259,7.259v1.277a1.116,1.116,0,0,1-1.117,1.117h-7.3" transform="translate(-12.123 -3.916)" fill="none" stroke="#1a1818" stroke-linecap="round" stroke-linejoin="round" stroke-width="1.5"/>
      <line id="Line_597" data-name="Line 597" y2="3.802" transform="translate(36.696 16.009)" fill="none" stroke="#1a1818" stroke-linecap="round" stroke-linejoin="round" stroke-width="1.5"/>
      <path id="Path_1562" data-name="Path 1562" d="M21.188,17.493c0,2.613-1.907,5.015-4.259,5.015s-4.259-2.4-4.259-5.015a4.514,4.514,0,0,1,4.259-4.732A4.514,4.514,0,0,1,21.188,17.493Z" transform="translate(-3.525 -3.55)" fill="none" stroke="#1a1818" stroke-linecap="round" stroke-linejoin="round" stroke-width="1.5"/>
      <path id="Path_1563" data-name="Path 1563" d="M22.551,40.406H7.93A1.329,1.329,0,0,1,6.6,39.077V37.558a8.639,8.639,0,1,1,17.279,0v1.519A1.329,1.329,0,0,1,22.551,40.406Z" transform="translate(-1.837 -8.046)" fill="none" stroke="#1a1818" stroke-linecap="round" stroke-linejoin="round" stroke-width="1.5"/>
      <line id="Line_598" data-name="Line 598" y2="4.525" transform="translate(8.53 27.834)" fill="none" stroke="#1a1818" stroke-linecap="round" stroke-linejoin="round" stroke-width="1.5"/>
      <line id="Line_599" data-name="Line 599" y2="4.525" transform="translate(18.277 27.834)" fill="none" stroke="#1a1818" stroke-linecap="round" stroke-linejoin="round" stroke-width="1.5"/>
      <path id="Path_1564" data-name="Path 1564" d="M39.516,17.493c0,2.613-1.907,5.015-4.259,5.015S31,20.106,31,17.493a4.514,4.514,0,0,1,4.259-4.732A4.514,4.514,0,0,1,39.516,17.493Z" transform="translate(-8.625 -3.55)" fill="none" stroke="#1a1818" stroke-linecap="round" stroke-linejoin="round" stroke-width="1.5"/>
      <path id="Path_1565" data-name="Path 1565" d="M30.54,30.237a8.641,8.641,0,0,1,13.229,7.321v1.519a1.329,1.329,0,0,1-1.329,1.329H32.89" transform="translate(-8.498 -8.046)" fill="none" stroke="#1a1818" stroke-linecap="round" stroke-linejoin="round" stroke-width="1.5"/>
      <line id="Line_600" data-name="Line 600" y2="4.525" transform="translate(31.506 27.834)" fill="none" stroke="#1a1818" stroke-linecap="round" stroke-linejoin="round" stroke-width="1.5"/>
      <path id="Path_1566" data-name="Path 1566" d="M5.6,4.476c0,2.2,1.6,4.214,3.578,4.214s3.579-2.018,3.579-4.214A3.794,3.794,0,0,0,9.178.5,3.793,3.793,0,0,0,5.6,4.476Z" transform="translate(-1.558 -0.139)" fill="none" stroke="#1a1818" stroke-linecap="round" stroke-linejoin="round" stroke-width="1.5"/>
      <path id="Path_1567" data-name="Path 1567" d="M7.759,14.076h0A7.259,7.259,0,0,0,.5,21.335v1.277a1.117,1.117,0,0,0,1.117,1.117h7.3" transform="translate(-0.139 -3.916)" fill="none" stroke="#1a1818" stroke-linecap="round" stroke-linejoin="round" stroke-width="1.5"/>
      <line id="Line_601" data-name="Line 601" y2="3.802" transform="translate(3.525 16.009)" fill="none" stroke="#1a1818" stroke-linecap="round" stroke-linejoin="round" stroke-width="1.5"/>
      <path id="Path_1568" data-name="Path 1568" d="M22.777,4.476c0,2.2,1.6,4.214,3.578,4.214s3.578-2.018,3.578-4.214A3.793,3.793,0,0,0,26.355.5,3.793,3.793,0,0,0,22.777,4.476Z" transform="translate(-6.338 -0.139)" fill="none" stroke="#1a1818" stroke-linecap="round" stroke-linejoin="round" stroke-width="1.5"/>
      <path id="Path_1569" data-name="Path 1569" d="M28.454,14.141a7.334,7.334,0,0,0-2.176.031" transform="translate(-7.312 -3.916)" fill="none" stroke="#1a1818" stroke-linecap="round" stroke-linejoin="round" stroke-width="1.5"/>
    </g>
  </g>
</svg>
