<svg width="9" height="9" viewBox="0 0 9 9" fill="none" xmlns="http://www.w3.org/2000/svg">
<path d="M2.82679 8.45372H8.3125V7.52044H2.82679V8.45372ZM2.82679 5.6539H8.3125V4.72063H2.82679V5.6539ZM2.82679 1.92082V2.85409H8.3125V1.92082H2.82679ZM0.998214 1.6875C0.908135 1.68753 0.818944 1.70567 0.735733 1.74089C0.652522 1.7761 0.576921 1.8277 0.513246 1.89274C0.449572 1.95778 0.399071 2.03499 0.364627 2.11995C0.330183 2.20491 0.31247 2.29597 0.3125 2.38792C0.31253 2.47987 0.330302 2.57091 0.364802 2.65585C0.399301 2.74079 0.449853 2.81796 0.51357 2.88296C0.577287 2.94796 0.652921 2.9995 0.736155 3.03466C0.819389 3.06982 0.908592 3.0879 0.998671 3.08787C1.18059 3.08781 1.35504 3.01398 1.48364 2.88263C1.61224 2.75127 1.68445 2.57315 1.68439 2.38745C1.68433 2.20175 1.612 2.02368 1.48332 1.89241C1.35463 1.76115 1.18014 1.68744 0.998214 1.6875ZM0.998214 4.48731C0.908135 4.48734 0.818944 4.50549 0.735733 4.5407C0.652522 4.57592 0.576921 4.62752 0.513246 4.69256C0.449572 4.7576 0.399071 4.8348 0.364627 4.91977C0.330183 5.00473 0.31247 5.09578 0.3125 5.18773C0.31253 5.27968 0.330302 5.37073 0.364802 5.45567C0.399301 5.5406 0.449853 5.61778 0.51357 5.68277C0.577287 5.74777 0.652921 5.79932 0.736155 5.83448C0.819389 5.86964 0.908592 5.88772 0.998671 5.88769C1.18059 5.88763 1.35504 5.8138 1.48364 5.68244C1.61224 5.55109 1.68445 5.37297 1.68439 5.18727C1.68433 5.00157 1.612 4.8235 1.48332 4.69223C1.35463 4.56096 1.18014 4.48725 0.998214 4.48731ZM0.998214 7.28713C0.908135 7.28716 0.818944 7.3053 0.735733 7.34052C0.652522 7.37573 0.576921 7.42733 0.513246 7.49237C0.449572 7.55741 0.399071 7.63462 0.364627 7.71958C0.330183 7.80454 0.31247 7.8956 0.3125 7.98755C0.31253 8.0795 0.330302 8.17054 0.364802 8.25548C0.399301 8.34042 0.449853 8.41759 0.51357 8.48259C0.577287 8.54758 0.652921 8.59913 0.736155 8.63429C0.819389 8.66945 0.908592 8.68753 0.998671 8.6875C1.18059 8.68744 1.35504 8.61361 1.48364 8.48226C1.61224 8.3509 1.68445 8.17278 1.68439 7.98708C1.68433 7.80138 1.612 7.62331 1.48332 7.49204C1.35463 7.36078 1.18014 7.28707 0.998214 7.28713Z" fill="#111111"/>
</svg>
