<svg width="10" height="10" viewBox="0 0 10 10" fill="none" xmlns="http://www.w3.org/2000/svg">
<g clip-path="url(#clip0_409_76)">
<path fill-rule="evenodd" clip-rule="evenodd" d="M5.021 0.521484C5.06633 0.521456 5.11113 0.531244 5.15232 0.550176C5.1935 0.569108 5.2301 0.596736 5.2596 0.631159L6.51541 2.09628C6.56959 2.15956 6.59641 2.24177 6.58998 2.32483C6.58354 2.40788 6.54437 2.48498 6.48109 2.53916C6.41781 2.59334 6.3356 2.62016 6.25254 2.61372C6.16948 2.60728 6.09238 2.56812 6.03821 2.50483L5.33495 1.68437V6.2773C5.33495 6.36056 5.30187 6.44042 5.24299 6.4993C5.18412 6.55817 5.10426 6.59125 5.021 6.59125C4.93773 6.59125 4.85788 6.55817 4.799 6.4993C4.74012 6.44042 4.70704 6.36056 4.70704 6.2773V1.68395L4.00379 2.50483C3.97696 2.53617 3.94423 2.56191 3.90745 2.58059C3.87067 2.59928 3.83058 2.61053 3.78945 2.61372C3.74833 2.61691 3.70698 2.61196 3.66776 2.59917C3.62855 2.58638 3.59224 2.56599 3.5609 2.53916C3.52957 2.51233 3.50383 2.4796 3.48514 2.44282C3.46646 2.40605 3.4552 2.36595 3.45202 2.32483C3.44883 2.2837 3.45377 2.24235 3.46657 2.20313C3.47936 2.16392 3.49975 2.12761 3.52658 2.09628L4.78239 0.631159C4.81189 0.596736 4.84849 0.569108 4.88968 0.550176C4.93086 0.531244 4.97566 0.521456 5.021 0.521484ZM2.9263 3.45255C3.00956 3.45211 3.0896 3.48476 3.14879 3.54332C3.20798 3.60189 3.24148 3.68157 3.24193 3.76483C3.24237 3.8481 3.20972 3.92813 3.15116 3.98732C3.09259 4.04651 3.01291 4.08002 2.92965 4.08046C2.47211 4.08297 2.14769 4.09469 1.90114 4.1399C1.66421 4.18386 1.52648 4.25376 1.42476 4.35548C1.30881 4.47144 1.23346 4.63427 1.19202 4.94153C1.14974 5.25758 1.1489 5.6766 1.1489 6.2773V6.6959C1.1489 7.29702 1.14974 7.71604 1.19202 8.03209C1.23346 8.33934 1.30923 8.50176 1.42476 8.61813C1.54072 8.73367 1.70314 8.80902 2.01081 8.85046C2.32644 8.89316 2.74588 8.89358 3.34658 8.89358H6.69541C7.29611 8.89358 7.71514 8.89316 8.0316 8.85046C8.33886 8.80902 8.50127 8.73367 8.61723 8.61772C8.73318 8.50176 8.80853 8.33934 8.84997 8.03209C8.89225 7.71604 8.89309 7.29702 8.89309 6.6959V6.2773C8.89309 5.6766 8.89225 5.25758 8.84997 4.94111C8.80853 4.63427 8.73276 4.47144 8.61723 4.35548C8.51509 4.25376 8.37779 4.18386 8.14086 4.1399C7.8943 4.09469 7.56988 4.08297 7.11234 4.08046C7.07112 4.08024 7.03033 4.0719 6.99233 4.05592C6.95432 4.03994 6.91983 4.01663 6.89084 3.98732C6.86184 3.95801 6.8389 3.92328 6.82332 3.88511C6.80775 3.84693 6.79985 3.80606 6.80007 3.76483C6.80029 3.7236 6.80862 3.68282 6.8246 3.64482C6.84059 3.60681 6.8639 3.57232 6.8932 3.54332C6.92251 3.51433 6.95725 3.49139 6.99542 3.47581C7.0336 3.46024 7.07446 3.45233 7.11569 3.45255C7.56862 3.45507 7.94579 3.46595 8.2543 3.52246C8.5716 3.58107 8.8416 3.692 9.06137 3.91176C9.31337 4.16334 9.42137 4.48107 9.47244 4.85781C9.521 5.22032 9.521 5.68204 9.521 6.25427V6.71893C9.521 7.29158 9.521 7.75288 9.47244 8.11581C9.42137 8.49255 9.31337 8.80986 9.06137 9.06186C8.80937 9.31386 8.49207 9.42186 8.11532 9.47293C7.75239 9.52148 7.29067 9.52148 6.71844 9.52148H3.32355C2.75132 9.52148 2.2896 9.52148 1.92667 9.47293C1.54993 9.42228 1.23262 9.31386 0.980624 9.06186C0.728624 8.80986 0.620624 8.49255 0.569973 8.11581C0.520996 7.75288 0.520996 7.29116 0.520996 6.71893V6.25427C0.520996 5.68204 0.520996 5.22032 0.569973 4.85739C0.620205 4.48065 0.729043 4.16334 0.980624 3.91134C1.20039 3.692 1.47039 3.58065 1.78769 3.52246C2.09621 3.46595 2.47337 3.45507 2.9263 3.45255Z" fill="black" stroke="black" stroke-width="0.3"/>
</g>
<defs>
<clipPath id="clip0_409_76">
<rect width="10" height="10" fill="white"/>
</clipPath>
</defs>
</svg>
