<svg width="41" height="26" viewBox="0 0 41 26" fill="none" xmlns="http://www.w3.org/2000/svg">
<path d="M40.0862 25.2601L28.7461 18.6531V7.41504L40.0862 0.809082V25.2601ZM30.927 17.1171L37.1792 20.5901V5.47913L30.927 8.95203V17.1171Z" fill="black"/>
<path d="M24.1519 25.448H3.97192C3.01323 25.4469 2.09392 25.0656 1.41602 24.3877C0.738113 23.7098 0.357016 22.7907 0.355957 21.832V3.61597C0.357016 2.65727 0.738113 1.7382 1.41602 1.0603C2.09392 0.382401 3.01323 0.00105875 3.97192 0H24.1519C25.1106 0.00105823 26.0299 0.382307 26.708 1.06018C27.3861 1.73805 27.7675 2.65718 27.7688 3.61597V21.832C27.7675 22.7908 27.3861 23.7099 26.708 24.3878C26.0299 25.0657 25.1106 25.4469 24.1519 25.448ZM3.97192 2.67908C3.72341 2.67961 3.48521 2.77852 3.30957 2.95435C3.13393 3.13017 3.03518 3.36855 3.03491 3.61707V21.833C3.03518 22.0817 3.13396 22.3201 3.30981 22.496C3.48567 22.6718 3.72421 22.7707 3.9729 22.771H24.1528C24.4014 22.7707 24.6396 22.672 24.8154 22.4963C24.9913 22.3207 25.0903 22.0825 25.0908 21.834V3.61804C25.0903 3.3697 24.9915 3.13166 24.8159 2.95605C24.6403 2.78045 24.4022 2.68156 24.1538 2.68103L3.97192 2.67908Z" fill="black"/>
<path d="M8.39185 10.4H5.71289V8.12292C5.71368 7.38905 6.00573 6.68555 6.52466 6.16663C7.04359 5.6477 7.74708 5.35577 8.48096 5.35498H12.9448V8.03394H8.48096C8.45774 8.03514 8.43587 8.04496 8.41943 8.0614C8.403 8.07784 8.39305 8.09971 8.39185 8.12292V10.4Z" fill="black"/>
</svg>
